<mxfile host="app.diagrams.net" agent="Mozilla/5.0 (Windows NT 10.0; Win64; x64; rv:136.0) Gecko/20100101 Firefox/136.0" version="26.0.16" pages="4">
  <diagram name="menu" id="PaFuGZoxLM62-4yeDRPU">
    <mxGraphModel dx="880" dy="508" grid="1" gridSize="10" guides="1" tooltips="1" connect="1" arrows="1" fold="1" page="1" pageScale="1" pageWidth="2000" pageHeight="2000" background="none" math="0" shadow="0">
      <root>
        <mxCell id="0" />
        <mxCell id="1" parent="0" />
        <mxCell id="jKKuK3r9CQ5t2Ov0ZlWp-12" style="edgeStyle=orthogonalEdgeStyle;rounded=0;orthogonalLoop=1;jettySize=auto;html=1;exitX=0.5;exitY=1;exitDx=0;exitDy=0;entryX=0.5;entryY=0;entryDx=0;entryDy=0;" parent="1" target="jKKuK3r9CQ5t2Ov0ZlWp-2" edge="1">
          <mxGeometry relative="1" as="geometry">
            <mxPoint x="400" y="90" as="sourcePoint" />
          </mxGeometry>
        </mxCell>
        <mxCell id="jKKuK3r9CQ5t2Ov0ZlWp-13" style="edgeStyle=orthogonalEdgeStyle;rounded=0;orthogonalLoop=1;jettySize=auto;html=1;exitX=0.5;exitY=1;exitDx=0;exitDy=0;entryX=0.5;entryY=0;entryDx=0;entryDy=0;" parent="1" source="jKKuK3r9CQ5t2Ov0ZlWp-2" target="jKKuK3r9CQ5t2Ov0ZlWp-3" edge="1">
          <mxGeometry relative="1" as="geometry" />
        </mxCell>
        <mxCell id="jKKuK3r9CQ5t2Ov0ZlWp-2" value="input &lt;br&gt;&lt;p data-pm-slice=&quot;1 1 [&amp;quot;ordered_list&amp;quot;,{&amp;quot;spread&amp;quot;:false,&amp;quot;startingNumber&amp;quot;:1,&amp;quot;start&amp;quot;:246,&amp;quot;end&amp;quot;:616},&amp;quot;regular_list_item&amp;quot;,{&amp;quot;start&amp;quot;:259,&amp;quot;end&amp;quot;:306}]&quot;&gt;username&lt;/p&gt;" style="shape=parallelogram;perimeter=parallelogramPerimeter;whiteSpace=wrap;html=1;fixedSize=1;" parent="1" vertex="1">
          <mxGeometry x="340" y="140" width="120" height="60" as="geometry" />
        </mxCell>
        <mxCell id="jKKuK3r9CQ5t2Ov0ZlWp-14" style="edgeStyle=orthogonalEdgeStyle;rounded=0;orthogonalLoop=1;jettySize=auto;html=1;exitX=0.5;exitY=1;exitDx=0;exitDy=0;entryX=0.5;entryY=0;entryDx=0;entryDy=0;" parent="1" source="jKKuK3r9CQ5t2Ov0ZlWp-3" target="jKKuK3r9CQ5t2Ov0ZlWp-4" edge="1">
          <mxGeometry relative="1" as="geometry" />
        </mxCell>
        <mxCell id="jKKuK3r9CQ5t2Ov0ZlWp-3" value="input pasword" style="shape=parallelogram;perimeter=parallelogramPerimeter;whiteSpace=wrap;html=1;fixedSize=1;" parent="1" vertex="1">
          <mxGeometry x="340" y="270" width="120" height="60" as="geometry" />
        </mxCell>
        <mxCell id="jKKuK3r9CQ5t2Ov0ZlWp-19" style="edgeStyle=orthogonalEdgeStyle;rounded=0;orthogonalLoop=1;jettySize=auto;html=1;exitX=1;exitY=0.5;exitDx=0;exitDy=0;entryX=0;entryY=0.5;entryDx=0;entryDy=0;" parent="1" source="jKKuK3r9CQ5t2Ov0ZlWp-4" target="jKKuK3r9CQ5t2Ov0ZlWp-5" edge="1">
          <mxGeometry relative="1" as="geometry" />
        </mxCell>
        <mxCell id="jKKuK3r9CQ5t2Ov0ZlWp-4" value="Kecocokan Login" style="rhombus;whiteSpace=wrap;html=1;" parent="1" vertex="1">
          <mxGeometry x="340" y="380" width="120" height="120" as="geometry" />
        </mxCell>
        <mxCell id="jKKuK3r9CQ5t2Ov0ZlWp-5" value="jumpal kesempatan&lt;br&gt;-1" style="rounded=0;whiteSpace=wrap;html=1;" parent="1" vertex="1">
          <mxGeometry x="540" y="410" width="120" height="60" as="geometry" />
        </mxCell>
        <mxCell id="we6RopQRpU5hDQaVMeCz-5" style="edgeStyle=orthogonalEdgeStyle;rounded=0;orthogonalLoop=1;jettySize=auto;html=1;exitX=1;exitY=1;exitDx=0;exitDy=0;" edge="1" parent="1" source="we6RopQRpU5hDQaVMeCz-4">
          <mxGeometry relative="1" as="geometry">
            <mxPoint x="500" y="627" as="targetPoint" />
            <Array as="points">
              <mxPoint x="480" y="627" />
              <mxPoint x="480" y="627" />
            </Array>
          </mxGeometry>
        </mxCell>
        <mxCell id="we6RopQRpU5hDQaVMeCz-9" value="" style="endArrow=classic;html=1;rounded=0;entryX=0;entryY=0;entryDx=0;entryDy=0;" edge="1" parent="1" target="jKKuK3r9CQ5t2Ov0ZlWp-2">
          <mxGeometry width="50" height="50" relative="1" as="geometry">
            <mxPoint x="290" y="150" as="sourcePoint" />
            <mxPoint x="340" y="140" as="targetPoint" />
          </mxGeometry>
        </mxCell>
        <mxCell id="we6RopQRpU5hDQaVMeCz-10" value="" style="endArrow=classic;html=1;rounded=0;entryX=0;entryY=0;entryDx=0;entryDy=0;" edge="1" parent="1">
          <mxGeometry width="50" height="50" relative="1" as="geometry">
            <mxPoint x="290" y="280" as="sourcePoint" />
            <mxPoint x="357" y="279" as="targetPoint" />
          </mxGeometry>
        </mxCell>
        <mxCell id="we6RopQRpU5hDQaVMeCz-11" value="" style="edgeStyle=orthogonalEdgeStyle;rounded=0;orthogonalLoop=1;jettySize=auto;html=1;exitX=0.5;exitY=1;exitDx=0;exitDy=0;entryX=0.5;entryY=0;entryDx=0;entryDy=0;" edge="1" parent="1" source="jKKuK3r9CQ5t2Ov0ZlWp-4" target="we6RopQRpU5hDQaVMeCz-4">
          <mxGeometry relative="1" as="geometry">
            <mxPoint x="400" y="500" as="sourcePoint" />
            <mxPoint x="400" y="570" as="targetPoint" />
          </mxGeometry>
        </mxCell>
        <mxCell id="we6RopQRpU5hDQaVMeCz-17" style="edgeStyle=orthogonalEdgeStyle;rounded=0;orthogonalLoop=1;jettySize=auto;html=1;exitX=0.5;exitY=1;exitDx=0;exitDy=0;entryX=0.5;entryY=0;entryDx=0;entryDy=0;" edge="1" parent="1" source="we6RopQRpU5hDQaVMeCz-4" target="we6RopQRpU5hDQaVMeCz-12">
          <mxGeometry relative="1" as="geometry" />
        </mxCell>
        <mxCell id="we6RopQRpU5hDQaVMeCz-4" value="Menu Utama:&lt;br&gt;1. Konversi Mata Uang&lt;br&gt;2. Konversi Jarak&lt;br&gt;3. Konversi Waktu&lt;br&gt;4. Logout" style="shape=parallelogram;perimeter=parallelogramPerimeter;whiteSpace=wrap;html=1;fixedSize=1;" vertex="1" parent="1">
          <mxGeometry x="325" y="530" width="150" height="110" as="geometry" />
        </mxCell>
        <mxCell id="we6RopQRpU5hDQaVMeCz-18" style="edgeStyle=orthogonalEdgeStyle;rounded=0;orthogonalLoop=1;jettySize=auto;html=1;exitX=0.5;exitY=1;exitDx=0;exitDy=0;entryX=0.5;entryY=0;entryDx=0;entryDy=0;" edge="1" parent="1" source="we6RopQRpU5hDQaVMeCz-12" target="we6RopQRpU5hDQaVMeCz-14">
          <mxGeometry relative="1" as="geometry" />
        </mxCell>
        <mxCell id="we6RopQRpU5hDQaVMeCz-25" value="salah" style="edgeLabel;html=1;align=center;verticalAlign=middle;resizable=0;points=[];" vertex="1" connectable="0" parent="we6RopQRpU5hDQaVMeCz-18">
          <mxGeometry x="-0.35" y="3" relative="1" as="geometry">
            <mxPoint as="offset" />
          </mxGeometry>
        </mxCell>
        <mxCell id="-rcOCd8Atzw856FiC7b6-1" style="edgeStyle=orthogonalEdgeStyle;rounded=0;orthogonalLoop=1;jettySize=auto;html=1;exitX=1;exitY=0.5;exitDx=0;exitDy=0;entryX=0;entryY=0.5;entryDx=0;entryDy=0;" edge="1" parent="1" source="we6RopQRpU5hDQaVMeCz-12" target="we6RopQRpU5hDQaVMeCz-36">
          <mxGeometry relative="1" as="geometry" />
        </mxCell>
        <mxCell id="-rcOCd8Atzw856FiC7b6-2" value="benar" style="edgeLabel;html=1;align=center;verticalAlign=middle;resizable=0;points=[];" vertex="1" connectable="0" parent="-rcOCd8Atzw856FiC7b6-1">
          <mxGeometry x="-0.075" y="2" relative="1" as="geometry">
            <mxPoint as="offset" />
          </mxGeometry>
        </mxCell>
        <mxCell id="we6RopQRpU5hDQaVMeCz-12" value="pilihan 1" style="rhombus;whiteSpace=wrap;html=1;" vertex="1" parent="1">
          <mxGeometry x="360" y="680" width="80" height="80" as="geometry" />
        </mxCell>
        <mxCell id="we6RopQRpU5hDQaVMeCz-19" style="edgeStyle=orthogonalEdgeStyle;rounded=0;orthogonalLoop=1;jettySize=auto;html=1;exitX=0.5;exitY=1;exitDx=0;exitDy=0;entryX=0.5;entryY=0;entryDx=0;entryDy=0;" edge="1" parent="1" source="we6RopQRpU5hDQaVMeCz-14" target="we6RopQRpU5hDQaVMeCz-15">
          <mxGeometry relative="1" as="geometry" />
        </mxCell>
        <mxCell id="we6RopQRpU5hDQaVMeCz-24" value="salah" style="edgeLabel;html=1;align=center;verticalAlign=middle;resizable=0;points=[];" vertex="1" connectable="0" parent="we6RopQRpU5hDQaVMeCz-19">
          <mxGeometry x="-0.16" relative="1" as="geometry">
            <mxPoint as="offset" />
          </mxGeometry>
        </mxCell>
        <mxCell id="PN15e7CiV33TiKJdAGaC-4" style="edgeStyle=orthogonalEdgeStyle;rounded=0;orthogonalLoop=1;jettySize=auto;html=1;exitX=1;exitY=0.5;exitDx=0;exitDy=0;entryX=0;entryY=0.5;entryDx=0;entryDy=0;" edge="1" parent="1" source="we6RopQRpU5hDQaVMeCz-14" target="PN15e7CiV33TiKJdAGaC-3">
          <mxGeometry relative="1" as="geometry" />
        </mxCell>
        <mxCell id="S9TgXpWp1wQEoed72htE-3" value="benar" style="edgeLabel;html=1;align=center;verticalAlign=middle;resizable=0;points=[];" vertex="1" connectable="0" parent="PN15e7CiV33TiKJdAGaC-4">
          <mxGeometry x="-0.075" y="2" relative="1" as="geometry">
            <mxPoint as="offset" />
          </mxGeometry>
        </mxCell>
        <mxCell id="we6RopQRpU5hDQaVMeCz-14" value="pilihan 2" style="rhombus;whiteSpace=wrap;html=1;" vertex="1" parent="1">
          <mxGeometry x="360" y="800" width="80" height="80" as="geometry" />
        </mxCell>
        <mxCell id="we6RopQRpU5hDQaVMeCz-20" style="edgeStyle=orthogonalEdgeStyle;rounded=0;orthogonalLoop=1;jettySize=auto;html=1;exitX=0.5;exitY=1;exitDx=0;exitDy=0;entryX=0.5;entryY=0;entryDx=0;entryDy=0;" edge="1" parent="1" source="we6RopQRpU5hDQaVMeCz-15" target="we6RopQRpU5hDQaVMeCz-16">
          <mxGeometry relative="1" as="geometry" />
        </mxCell>
        <mxCell id="we6RopQRpU5hDQaVMeCz-22" value="salah" style="edgeLabel;html=1;align=center;verticalAlign=middle;resizable=0;points=[];" vertex="1" connectable="0" parent="we6RopQRpU5hDQaVMeCz-20">
          <mxGeometry x="-0.1333" relative="1" as="geometry">
            <mxPoint as="offset" />
          </mxGeometry>
        </mxCell>
        <mxCell id="S9TgXpWp1wQEoed72htE-2" style="edgeStyle=orthogonalEdgeStyle;rounded=0;orthogonalLoop=1;jettySize=auto;html=1;exitX=1;exitY=0.5;exitDx=0;exitDy=0;entryX=0;entryY=0.5;entryDx=0;entryDy=0;" edge="1" parent="1" source="we6RopQRpU5hDQaVMeCz-15" target="S9TgXpWp1wQEoed72htE-1">
          <mxGeometry relative="1" as="geometry" />
        </mxCell>
        <mxCell id="S9TgXpWp1wQEoed72htE-4" value="benar" style="edgeLabel;html=1;align=center;verticalAlign=middle;resizable=0;points=[];" vertex="1" connectable="0" parent="S9TgXpWp1wQEoed72htE-2">
          <mxGeometry x="-0.175" y="3" relative="1" as="geometry">
            <mxPoint as="offset" />
          </mxGeometry>
        </mxCell>
        <mxCell id="we6RopQRpU5hDQaVMeCz-15" value="pilihan 3" style="rhombus;whiteSpace=wrap;html=1;" vertex="1" parent="1">
          <mxGeometry x="360" y="930" width="80" height="80" as="geometry" />
        </mxCell>
        <mxCell id="we6RopQRpU5hDQaVMeCz-21" style="edgeStyle=orthogonalEdgeStyle;rounded=0;orthogonalLoop=1;jettySize=auto;html=1;exitX=0.5;exitY=1;exitDx=0;exitDy=0;" edge="1" parent="1" source="we6RopQRpU5hDQaVMeCz-16">
          <mxGeometry relative="1" as="geometry">
            <mxPoint x="400" y="1210" as="targetPoint" />
          </mxGeometry>
        </mxCell>
        <mxCell id="we6RopQRpU5hDQaVMeCz-23" value="benar" style="edgeLabel;html=1;align=center;verticalAlign=middle;resizable=0;points=[];" vertex="1" connectable="0" parent="we6RopQRpU5hDQaVMeCz-21">
          <mxGeometry x="-0.1" relative="1" as="geometry">
            <mxPoint as="offset" />
          </mxGeometry>
        </mxCell>
        <mxCell id="we6RopQRpU5hDQaVMeCz-27" style="edgeStyle=orthogonalEdgeStyle;rounded=0;orthogonalLoop=1;jettySize=auto;html=1;exitX=1;exitY=0.5;exitDx=0;exitDy=0;entryX=0;entryY=0.5;entryDx=0;entryDy=0;" edge="1" parent="1" source="we6RopQRpU5hDQaVMeCz-16" target="we6RopQRpU5hDQaVMeCz-26">
          <mxGeometry relative="1" as="geometry" />
        </mxCell>
        <mxCell id="we6RopQRpU5hDQaVMeCz-29" value="salah" style="edgeLabel;html=1;align=center;verticalAlign=middle;resizable=0;points=[];" vertex="1" connectable="0" parent="we6RopQRpU5hDQaVMeCz-27">
          <mxGeometry x="-0.1143" y="3" relative="1" as="geometry">
            <mxPoint as="offset" />
          </mxGeometry>
        </mxCell>
        <mxCell id="we6RopQRpU5hDQaVMeCz-16" value="pilihan 4" style="rhombus;whiteSpace=wrap;html=1;" vertex="1" parent="1">
          <mxGeometry x="360" y="1070" width="80" height="80" as="geometry" />
        </mxCell>
        <mxCell id="we6RopQRpU5hDQaVMeCz-28" style="edgeStyle=orthogonalEdgeStyle;rounded=0;orthogonalLoop=1;jettySize=auto;html=1;exitX=1;exitY=1;exitDx=0;exitDy=0;" edge="1" parent="1" source="we6RopQRpU5hDQaVMeCz-26">
          <mxGeometry relative="1" as="geometry">
            <mxPoint x="650" y="1131" as="targetPoint" />
          </mxGeometry>
        </mxCell>
        <mxCell id="we6RopQRpU5hDQaVMeCz-26" value="Pilihan tidak valid, silakan coba lagi" style="shape=parallelogram;perimeter=parallelogramPerimeter;whiteSpace=wrap;html=1;fixedSize=1;" vertex="1" parent="1">
          <mxGeometry x="500" y="1080" width="120" height="60" as="geometry" />
        </mxCell>
        <mxCell id="we6RopQRpU5hDQaVMeCz-36" value="Konversi Mata Uang" style="verticalLabelPosition=bottom;verticalAlign=top;html=1;shape=offPageConnector;rounded=0;size=0.5;" vertex="1" parent="1">
          <mxGeometry x="520" y="690" width="60" height="60" as="geometry" />
        </mxCell>
        <mxCell id="L_Gi7glhGP91PALfVu3a-1" value="mulai" style="strokeWidth=2;html=1;shape=mxgraph.flowchart.terminator;whiteSpace=wrap;" vertex="1" parent="1">
          <mxGeometry x="350" y="30" width="100" height="60" as="geometry" />
        </mxCell>
        <mxCell id="L_Gi7glhGP91PALfVu3a-2" value="selesai" style="strokeWidth=2;html=1;shape=mxgraph.flowchart.terminator;whiteSpace=wrap;" vertex="1" parent="1">
          <mxGeometry x="350" y="1210" width="100" height="60" as="geometry" />
        </mxCell>
        <mxCell id="PN15e7CiV33TiKJdAGaC-3" value="Konversi Jarak" style="verticalLabelPosition=bottom;verticalAlign=top;html=1;shape=offPageConnector;rounded=0;size=0.5;" vertex="1" parent="1">
          <mxGeometry x="520" y="810" width="60" height="60" as="geometry" />
        </mxCell>
        <mxCell id="S9TgXpWp1wQEoed72htE-1" value="&amp;nbsp;Konversi Waktu" style="verticalLabelPosition=bottom;verticalAlign=top;html=1;shape=offPageConnector;rounded=0;size=0.5;" vertex="1" parent="1">
          <mxGeometry x="520" y="940" width="60" height="60" as="geometry" />
        </mxCell>
      </root>
    </mxGraphModel>
  </diagram>
  <diagram id="w9w2Q3WqlXrFfIdAUYeF" name="Konversi Mata Uang">
    <mxGraphModel dx="838" dy="484" grid="1" gridSize="10" guides="1" tooltips="1" connect="1" arrows="1" fold="1" page="1" pageScale="1" pageWidth="2000" pageHeight="2000" math="0" shadow="0">
      <root>
        <mxCell id="0" />
        <mxCell id="1" parent="0" />
        <mxCell id="YVcbSapDFp45wGWHwOj0-3" style="edgeStyle=orthogonalEdgeStyle;rounded=0;orthogonalLoop=1;jettySize=auto;html=1;exitX=0.5;exitY=1;exitDx=0;exitDy=0;entryX=0.5;entryY=0;entryDx=0;entryDy=0;" edge="1" parent="1" source="YVcbSapDFp45wGWHwOj0-1">
          <mxGeometry relative="1" as="geometry">
            <mxPoint x="360" y="140" as="targetPoint" />
          </mxGeometry>
        </mxCell>
        <mxCell id="YVcbSapDFp45wGWHwOj0-1" value="Konversi Mata Uang" style="verticalLabelPosition=bottom;verticalAlign=top;html=1;shape=offPageConnector;rounded=0;size=0.5;" vertex="1" parent="1">
          <mxGeometry x="330" y="20" width="60" height="60" as="geometry" />
        </mxCell>
        <mxCell id="PfOOcujbiFSWnE9gJDaE-3" style="edgeStyle=orthogonalEdgeStyle;rounded=0;orthogonalLoop=1;jettySize=auto;html=1;exitX=0.5;exitY=1;exitDx=0;exitDy=0;exitPerimeter=0;entryX=0.5;entryY=0;entryDx=0;entryDy=0;" edge="1" parent="1" source="YVcbSapDFp45wGWHwOj0-4" target="PfOOcujbiFSWnE9gJDaE-2">
          <mxGeometry relative="1" as="geometry" />
        </mxCell>
        <mxCell id="YVcbSapDFp45wGWHwOj0-4" value="mulai" style="strokeWidth=2;html=1;shape=mxgraph.flowchart.terminator;whiteSpace=wrap;" vertex="1" parent="1">
          <mxGeometry x="310" y="140" width="100" height="60" as="geometry" />
        </mxCell>
        <mxCell id="4in6TA6v4UdcMgMGvu6u-65" style="edgeStyle=orthogonalEdgeStyle;rounded=0;orthogonalLoop=1;jettySize=auto;html=1;exitX=0.5;exitY=1;exitDx=0;exitDy=0;entryX=0.5;entryY=0;entryDx=0;entryDy=0;" edge="1" parent="1" source="PfOOcujbiFSWnE9gJDaE-2" target="skjKZLAa6a59sgEuuwGW-2">
          <mxGeometry relative="1" as="geometry" />
        </mxCell>
        <mxCell id="PfOOcujbiFSWnE9gJDaE-2" value="Konversi Mata Uang:&lt;br&gt;1. Rupiah ke Dolar AS&lt;br&gt;2. Rupiah ke Euro&lt;br&gt;3. Dolar AS ke Rupiah&lt;br&gt;4. Dolar AS ke Euro&lt;br&gt;5. Euro ke Rupiah&lt;br&gt;6. Euro ke Dolar AS&lt;br&gt;7. Kembali" style="shape=parallelogram;perimeter=parallelogramPerimeter;whiteSpace=wrap;html=1;fixedSize=1;" vertex="1" parent="1">
          <mxGeometry x="250" y="240" width="220" height="120" as="geometry" />
        </mxCell>
        <mxCell id="skjKZLAa6a59sgEuuwGW-1" value="" style="endArrow=classic;html=1;rounded=0;entryX=0;entryY=0;entryDx=0;entryDy=0;" edge="1" parent="1">
          <mxGeometry width="50" height="50" relative="1" as="geometry">
            <mxPoint x="200" y="260" as="sourcePoint" />
            <mxPoint x="267" y="259" as="targetPoint" />
          </mxGeometry>
        </mxCell>
        <mxCell id="4in6TA6v4UdcMgMGvu6u-3" style="edgeStyle=orthogonalEdgeStyle;rounded=0;orthogonalLoop=1;jettySize=auto;html=1;exitX=1;exitY=0.5;exitDx=0;exitDy=0;" edge="1" parent="1" source="skjKZLAa6a59sgEuuwGW-2" target="4in6TA6v4UdcMgMGvu6u-1">
          <mxGeometry relative="1" as="geometry" />
        </mxCell>
        <mxCell id="4in6TA6v4UdcMgMGvu6u-82" value="benar" style="edgeLabel;html=1;align=center;verticalAlign=middle;resizable=0;points=[];" vertex="1" connectable="0" parent="4in6TA6v4UdcMgMGvu6u-3">
          <mxGeometry x="-0.271" y="1" relative="1" as="geometry">
            <mxPoint as="offset" />
          </mxGeometry>
        </mxCell>
        <mxCell id="4in6TA6v4UdcMgMGvu6u-55" style="edgeStyle=orthogonalEdgeStyle;rounded=0;orthogonalLoop=1;jettySize=auto;html=1;exitX=0.5;exitY=1;exitDx=0;exitDy=0;entryX=0.5;entryY=0;entryDx=0;entryDy=0;" edge="1" parent="1" source="skjKZLAa6a59sgEuuwGW-2" target="skjKZLAa6a59sgEuuwGW-3">
          <mxGeometry relative="1" as="geometry" />
        </mxCell>
        <mxCell id="4in6TA6v4UdcMgMGvu6u-81" value="salah" style="edgeLabel;html=1;align=center;verticalAlign=middle;resizable=0;points=[];" vertex="1" connectable="0" parent="4in6TA6v4UdcMgMGvu6u-55">
          <mxGeometry x="-0.2648" y="1" relative="1" as="geometry">
            <mxPoint as="offset" />
          </mxGeometry>
        </mxCell>
        <mxCell id="skjKZLAa6a59sgEuuwGW-2" value="pilihan 1" style="rhombus;whiteSpace=wrap;html=1;" vertex="1" parent="1">
          <mxGeometry x="320" y="390" width="80" height="80" as="geometry" />
        </mxCell>
        <mxCell id="4in6TA6v4UdcMgMGvu6u-56" style="edgeStyle=orthogonalEdgeStyle;rounded=0;orthogonalLoop=1;jettySize=auto;html=1;exitX=0.5;exitY=1;exitDx=0;exitDy=0;entryX=0.5;entryY=0;entryDx=0;entryDy=0;" edge="1" parent="1" source="skjKZLAa6a59sgEuuwGW-3" target="skjKZLAa6a59sgEuuwGW-4">
          <mxGeometry relative="1" as="geometry" />
        </mxCell>
        <mxCell id="4in6TA6v4UdcMgMGvu6u-79" value="salah" style="edgeLabel;html=1;align=center;verticalAlign=middle;resizable=0;points=[];" vertex="1" connectable="0" parent="4in6TA6v4UdcMgMGvu6u-56">
          <mxGeometry x="-0.4362" y="-4" relative="1" as="geometry">
            <mxPoint as="offset" />
          </mxGeometry>
        </mxCell>
        <mxCell id="skjKZLAa6a59sgEuuwGW-3" value="pilihan 2" style="rhombus;whiteSpace=wrap;html=1;" vertex="1" parent="1">
          <mxGeometry x="320" y="520" width="80" height="80" as="geometry" />
        </mxCell>
        <mxCell id="4in6TA6v4UdcMgMGvu6u-29" style="edgeStyle=orthogonalEdgeStyle;rounded=0;orthogonalLoop=1;jettySize=auto;html=1;exitX=1;exitY=0.5;exitDx=0;exitDy=0;" edge="1" parent="1" source="skjKZLAa6a59sgEuuwGW-4" target="4in6TA6v4UdcMgMGvu6u-24">
          <mxGeometry relative="1" as="geometry" />
        </mxCell>
        <mxCell id="4in6TA6v4UdcMgMGvu6u-78" value="benar" style="edgeLabel;html=1;align=center;verticalAlign=middle;resizable=0;points=[];" vertex="1" connectable="0" parent="4in6TA6v4UdcMgMGvu6u-29">
          <mxGeometry x="-0.0929" y="1" relative="1" as="geometry">
            <mxPoint as="offset" />
          </mxGeometry>
        </mxCell>
        <mxCell id="4in6TA6v4UdcMgMGvu6u-57" style="edgeStyle=orthogonalEdgeStyle;rounded=0;orthogonalLoop=1;jettySize=auto;html=1;exitX=0.5;exitY=1;exitDx=0;exitDy=0;entryX=0.5;entryY=0;entryDx=0;entryDy=0;" edge="1" parent="1" source="skjKZLAa6a59sgEuuwGW-4" target="skjKZLAa6a59sgEuuwGW-5">
          <mxGeometry relative="1" as="geometry" />
        </mxCell>
        <mxCell id="4in6TA6v4UdcMgMGvu6u-77" value="salah" style="edgeLabel;html=1;align=center;verticalAlign=middle;resizable=0;points=[];" vertex="1" connectable="0" parent="4in6TA6v4UdcMgMGvu6u-57">
          <mxGeometry x="-0.2267" y="2" relative="1" as="geometry">
            <mxPoint as="offset" />
          </mxGeometry>
        </mxCell>
        <mxCell id="skjKZLAa6a59sgEuuwGW-4" value="pilihan 3" style="rhombus;whiteSpace=wrap;html=1;" vertex="1" parent="1">
          <mxGeometry x="320" y="650" width="80" height="80" as="geometry" />
        </mxCell>
        <mxCell id="4in6TA6v4UdcMgMGvu6u-58" style="edgeStyle=orthogonalEdgeStyle;rounded=0;orthogonalLoop=1;jettySize=auto;html=1;exitX=0.5;exitY=1;exitDx=0;exitDy=0;entryX=0.5;entryY=0;entryDx=0;entryDy=0;" edge="1" parent="1" source="skjKZLAa6a59sgEuuwGW-5" target="skjKZLAa6a59sgEuuwGW-6">
          <mxGeometry relative="1" as="geometry" />
        </mxCell>
        <mxCell id="4in6TA6v4UdcMgMGvu6u-75" value="salah" style="edgeLabel;html=1;align=center;verticalAlign=middle;resizable=0;points=[];" vertex="1" connectable="0" parent="4in6TA6v4UdcMgMGvu6u-58">
          <mxGeometry x="-0.3219" y="4" relative="1" as="geometry">
            <mxPoint as="offset" />
          </mxGeometry>
        </mxCell>
        <mxCell id="skjKZLAa6a59sgEuuwGW-5" value="pilihan 4" style="rhombus;whiteSpace=wrap;html=1;" vertex="1" parent="1">
          <mxGeometry x="320" y="780" width="80" height="80" as="geometry" />
        </mxCell>
        <mxCell id="4in6TA6v4UdcMgMGvu6u-59" style="edgeStyle=orthogonalEdgeStyle;rounded=0;orthogonalLoop=1;jettySize=auto;html=1;exitX=0.5;exitY=1;exitDx=0;exitDy=0;entryX=0.5;entryY=0;entryDx=0;entryDy=0;" edge="1" parent="1" source="skjKZLAa6a59sgEuuwGW-6" target="skjKZLAa6a59sgEuuwGW-7">
          <mxGeometry relative="1" as="geometry" />
        </mxCell>
        <mxCell id="4in6TA6v4UdcMgMGvu6u-73" value="salah" style="edgeLabel;html=1;align=center;verticalAlign=middle;resizable=0;points=[];" vertex="1" connectable="0" parent="4in6TA6v4UdcMgMGvu6u-59">
          <mxGeometry x="-0.4214" y="2" relative="1" as="geometry">
            <mxPoint as="offset" />
          </mxGeometry>
        </mxCell>
        <mxCell id="skjKZLAa6a59sgEuuwGW-6" value="pilihan 5" style="rhombus;whiteSpace=wrap;html=1;" vertex="1" parent="1">
          <mxGeometry x="320" y="910" width="80" height="80" as="geometry" />
        </mxCell>
        <mxCell id="4in6TA6v4UdcMgMGvu6u-53" style="edgeStyle=orthogonalEdgeStyle;rounded=0;orthogonalLoop=1;jettySize=auto;html=1;exitX=1;exitY=0.5;exitDx=0;exitDy=0;entryX=0;entryY=0.5;entryDx=0;entryDy=0;" edge="1" parent="1" source="skjKZLAa6a59sgEuuwGW-7" target="4in6TA6v4UdcMgMGvu6u-48">
          <mxGeometry relative="1" as="geometry" />
        </mxCell>
        <mxCell id="4in6TA6v4UdcMgMGvu6u-72" value="benar" style="edgeLabel;html=1;align=center;verticalAlign=middle;resizable=0;points=[];" vertex="1" connectable="0" parent="4in6TA6v4UdcMgMGvu6u-53">
          <mxGeometry x="-0.0993" y="1" relative="1" as="geometry">
            <mxPoint as="offset" />
          </mxGeometry>
        </mxCell>
        <mxCell id="4in6TA6v4UdcMgMGvu6u-60" style="edgeStyle=orthogonalEdgeStyle;rounded=0;orthogonalLoop=1;jettySize=auto;html=1;exitX=0.5;exitY=1;exitDx=0;exitDy=0;entryX=0.5;entryY=0;entryDx=0;entryDy=0;" edge="1" parent="1" source="skjKZLAa6a59sgEuuwGW-7" target="skjKZLAa6a59sgEuuwGW-8">
          <mxGeometry relative="1" as="geometry" />
        </mxCell>
        <mxCell id="4in6TA6v4UdcMgMGvu6u-71" value="salah" style="edgeLabel;html=1;align=center;verticalAlign=middle;resizable=0;points=[];" vertex="1" connectable="0" parent="4in6TA6v4UdcMgMGvu6u-60">
          <mxGeometry x="-0.3116" relative="1" as="geometry">
            <mxPoint as="offset" />
          </mxGeometry>
        </mxCell>
        <mxCell id="skjKZLAa6a59sgEuuwGW-7" value="pilihan 6" style="rhombus;whiteSpace=wrap;html=1;" vertex="1" parent="1">
          <mxGeometry x="320" y="1070" width="80" height="80" as="geometry" />
        </mxCell>
        <mxCell id="4in6TA6v4UdcMgMGvu6u-66" style="edgeStyle=orthogonalEdgeStyle;rounded=0;orthogonalLoop=1;jettySize=auto;html=1;exitX=1;exitY=0.5;exitDx=0;exitDy=0;" edge="1" parent="1" source="skjKZLAa6a59sgEuuwGW-8">
          <mxGeometry relative="1" as="geometry">
            <mxPoint x="1100" y="1110" as="targetPoint" />
          </mxGeometry>
        </mxCell>
        <mxCell id="4in6TA6v4UdcMgMGvu6u-67" value="salah" style="edgeLabel;html=1;align=center;verticalAlign=middle;resizable=0;points=[];" vertex="1" connectable="0" parent="4in6TA6v4UdcMgMGvu6u-66">
          <mxGeometry x="-0.8878" y="3" relative="1" as="geometry">
            <mxPoint as="offset" />
          </mxGeometry>
        </mxCell>
        <mxCell id="skjKZLAa6a59sgEuuwGW-8" value="pilihan 7" style="rhombus;whiteSpace=wrap;html=1;" vertex="1" parent="1">
          <mxGeometry x="320" y="1220" width="80" height="80" as="geometry" />
        </mxCell>
        <mxCell id="4in6TA6v4UdcMgMGvu6u-5" style="edgeStyle=orthogonalEdgeStyle;rounded=0;orthogonalLoop=1;jettySize=auto;html=1;exitX=1;exitY=0.5;exitDx=0;exitDy=0;" edge="1" parent="1" source="4in6TA6v4UdcMgMGvu6u-1">
          <mxGeometry relative="1" as="geometry">
            <mxPoint x="700" y="430" as="targetPoint" />
          </mxGeometry>
        </mxCell>
        <mxCell id="4in6TA6v4UdcMgMGvu6u-1" value="Masukkan jumlah" style="shape=parallelogram;perimeter=parallelogramPerimeter;whiteSpace=wrap;html=1;fixedSize=1;" vertex="1" parent="1">
          <mxGeometry x="500" y="400" width="120" height="60" as="geometry" />
        </mxCell>
        <mxCell id="4in6TA6v4UdcMgMGvu6u-2" value="" style="endArrow=classic;html=1;rounded=0;entryX=0;entryY=0;entryDx=0;entryDy=0;" edge="1" parent="1">
          <mxGeometry width="50" height="50" relative="1" as="geometry">
            <mxPoint x="450" y="411" as="sourcePoint" />
            <mxPoint x="517" y="410" as="targetPoint" />
          </mxGeometry>
        </mxCell>
        <mxCell id="4in6TA6v4UdcMgMGvu6u-8" value="" style="edgeStyle=orthogonalEdgeStyle;rounded=0;orthogonalLoop=1;jettySize=auto;html=1;" edge="1" parent="1" source="4in6TA6v4UdcMgMGvu6u-6" target="4in6TA6v4UdcMgMGvu6u-7">
          <mxGeometry relative="1" as="geometry" />
        </mxCell>
        <mxCell id="4in6TA6v4UdcMgMGvu6u-6" value="jumlah * kurs_usd" style="rounded=0;whiteSpace=wrap;html=1;" vertex="1" parent="1">
          <mxGeometry x="700" y="400" width="120" height="60" as="geometry" />
        </mxCell>
        <mxCell id="4in6TA6v4UdcMgMGvu6u-10" style="edgeStyle=orthogonalEdgeStyle;rounded=0;orthogonalLoop=1;jettySize=auto;html=1;exitX=1;exitY=0.75;exitDx=0;exitDy=0;" edge="1" parent="1" source="4in6TA6v4UdcMgMGvu6u-7">
          <mxGeometry relative="1" as="geometry">
            <mxPoint x="1030" y="441.71428571428567" as="targetPoint" />
          </mxGeometry>
        </mxCell>
        <mxCell id="4in6TA6v4UdcMgMGvu6u-7" value="&lt;div&gt;hasil&lt;/div&gt;" style="shape=parallelogram;perimeter=parallelogramPerimeter;whiteSpace=wrap;html=1;fixedSize=1;" vertex="1" parent="1">
          <mxGeometry x="880" y="400" width="120" height="60" as="geometry" />
        </mxCell>
        <mxCell id="4in6TA6v4UdcMgMGvu6u-11" style="edgeStyle=orthogonalEdgeStyle;rounded=0;orthogonalLoop=1;jettySize=auto;html=1;exitX=1;exitY=0.5;exitDx=0;exitDy=0;entryX=0.998;entryY=0.165;entryDx=0;entryDy=0;entryPerimeter=0;" edge="1" parent="1" source="4in6TA6v4UdcMgMGvu6u-7" target="PfOOcujbiFSWnE9gJDaE-2">
          <mxGeometry relative="1" as="geometry">
            <Array as="points">
              <mxPoint x="1100" y="430" />
              <mxPoint x="1100" y="260" />
            </Array>
          </mxGeometry>
        </mxCell>
        <mxCell id="4in6TA6v4UdcMgMGvu6u-14" style="edgeStyle=orthogonalEdgeStyle;rounded=0;orthogonalLoop=1;jettySize=auto;html=1;exitX=1;exitY=0.5;exitDx=0;exitDy=0;" edge="1" target="4in6TA6v4UdcMgMGvu6u-16" parent="1">
          <mxGeometry relative="1" as="geometry">
            <mxPoint x="400" y="560" as="sourcePoint" />
          </mxGeometry>
        </mxCell>
        <mxCell id="4in6TA6v4UdcMgMGvu6u-80" value="benar" style="edgeLabel;html=1;align=center;verticalAlign=middle;resizable=0;points=[];" vertex="1" connectable="0" parent="4in6TA6v4UdcMgMGvu6u-14">
          <mxGeometry x="-0.2396" relative="1" as="geometry">
            <mxPoint as="offset" />
          </mxGeometry>
        </mxCell>
        <mxCell id="4in6TA6v4UdcMgMGvu6u-15" style="edgeStyle=orthogonalEdgeStyle;rounded=0;orthogonalLoop=1;jettySize=auto;html=1;exitX=1;exitY=0.5;exitDx=0;exitDy=0;" edge="1" source="4in6TA6v4UdcMgMGvu6u-16" parent="1">
          <mxGeometry relative="1" as="geometry">
            <mxPoint x="700" y="560" as="targetPoint" />
          </mxGeometry>
        </mxCell>
        <mxCell id="4in6TA6v4UdcMgMGvu6u-16" value="Masukkan jumlah" style="shape=parallelogram;perimeter=parallelogramPerimeter;whiteSpace=wrap;html=1;fixedSize=1;" vertex="1" parent="1">
          <mxGeometry x="500" y="530" width="120" height="60" as="geometry" />
        </mxCell>
        <mxCell id="4in6TA6v4UdcMgMGvu6u-17" value="" style="endArrow=classic;html=1;rounded=0;entryX=0;entryY=0;entryDx=0;entryDy=0;" edge="1" parent="1">
          <mxGeometry width="50" height="50" relative="1" as="geometry">
            <mxPoint x="450" y="541" as="sourcePoint" />
            <mxPoint x="517" y="540" as="targetPoint" />
          </mxGeometry>
        </mxCell>
        <mxCell id="4in6TA6v4UdcMgMGvu6u-18" value="" style="edgeStyle=orthogonalEdgeStyle;rounded=0;orthogonalLoop=1;jettySize=auto;html=1;" edge="1" source="4in6TA6v4UdcMgMGvu6u-19" target="4in6TA6v4UdcMgMGvu6u-21" parent="1">
          <mxGeometry relative="1" as="geometry" />
        </mxCell>
        <mxCell id="4in6TA6v4UdcMgMGvu6u-19" value="jumlah * kurs_euro" style="rounded=0;whiteSpace=wrap;html=1;" vertex="1" parent="1">
          <mxGeometry x="700" y="530" width="120" height="60" as="geometry" />
        </mxCell>
        <mxCell id="4in6TA6v4UdcMgMGvu6u-20" style="edgeStyle=orthogonalEdgeStyle;rounded=0;orthogonalLoop=1;jettySize=auto;html=1;exitX=1;exitY=0.75;exitDx=0;exitDy=0;" edge="1" source="4in6TA6v4UdcMgMGvu6u-21" parent="1">
          <mxGeometry relative="1" as="geometry">
            <mxPoint x="1030" y="571.7142857142857" as="targetPoint" />
          </mxGeometry>
        </mxCell>
        <mxCell id="4in6TA6v4UdcMgMGvu6u-22" style="edgeStyle=orthogonalEdgeStyle;rounded=0;orthogonalLoop=1;jettySize=auto;html=1;exitX=1;exitY=0.5;exitDx=0;exitDy=0;" edge="1" parent="1" source="4in6TA6v4UdcMgMGvu6u-21">
          <mxGeometry relative="1" as="geometry">
            <mxPoint x="1100" y="430" as="targetPoint" />
          </mxGeometry>
        </mxCell>
        <mxCell id="4in6TA6v4UdcMgMGvu6u-21" value="&lt;div&gt;hasil&lt;/div&gt;" style="shape=parallelogram;perimeter=parallelogramPerimeter;whiteSpace=wrap;html=1;fixedSize=1;" vertex="1" parent="1">
          <mxGeometry x="880" y="530" width="120" height="60" as="geometry" />
        </mxCell>
        <mxCell id="4in6TA6v4UdcMgMGvu6u-23" style="edgeStyle=orthogonalEdgeStyle;rounded=0;orthogonalLoop=1;jettySize=auto;html=1;exitX=1;exitY=0.5;exitDx=0;exitDy=0;" edge="1" source="4in6TA6v4UdcMgMGvu6u-24" parent="1">
          <mxGeometry relative="1" as="geometry">
            <mxPoint x="670" y="690" as="targetPoint" />
          </mxGeometry>
        </mxCell>
        <mxCell id="4in6TA6v4UdcMgMGvu6u-24" value="Masukkan jumlah" style="shape=parallelogram;perimeter=parallelogramPerimeter;whiteSpace=wrap;html=1;fixedSize=1;" vertex="1" parent="1">
          <mxGeometry x="470" y="660" width="120" height="60" as="geometry" />
        </mxCell>
        <mxCell id="4in6TA6v4UdcMgMGvu6u-25" value="" style="endArrow=classic;html=1;rounded=0;entryX=0;entryY=0;entryDx=0;entryDy=0;" edge="1" parent="1">
          <mxGeometry width="50" height="50" relative="1" as="geometry">
            <mxPoint x="420" y="671" as="sourcePoint" />
            <mxPoint x="487" y="670" as="targetPoint" />
          </mxGeometry>
        </mxCell>
        <mxCell id="4in6TA6v4UdcMgMGvu6u-26" value="" style="edgeStyle=orthogonalEdgeStyle;rounded=0;orthogonalLoop=1;jettySize=auto;html=1;" edge="1" source="4in6TA6v4UdcMgMGvu6u-27" target="4in6TA6v4UdcMgMGvu6u-28" parent="1">
          <mxGeometry relative="1" as="geometry" />
        </mxCell>
        <mxCell id="4in6TA6v4UdcMgMGvu6u-27" value="jumlah / kurs_usd" style="rounded=0;whiteSpace=wrap;html=1;" vertex="1" parent="1">
          <mxGeometry x="670" y="660" width="120" height="60" as="geometry" />
        </mxCell>
        <mxCell id="4in6TA6v4UdcMgMGvu6u-30" style="edgeStyle=orthogonalEdgeStyle;rounded=0;orthogonalLoop=1;jettySize=auto;html=1;exitX=1;exitY=0.5;exitDx=0;exitDy=0;" edge="1" parent="1" source="4in6TA6v4UdcMgMGvu6u-28">
          <mxGeometry relative="1" as="geometry">
            <mxPoint x="1100" y="560" as="targetPoint" />
          </mxGeometry>
        </mxCell>
        <mxCell id="4in6TA6v4UdcMgMGvu6u-83" style="edgeStyle=orthogonalEdgeStyle;rounded=0;orthogonalLoop=1;jettySize=auto;html=1;exitX=1;exitY=0.75;exitDx=0;exitDy=0;" edge="1" parent="1" source="4in6TA6v4UdcMgMGvu6u-28">
          <mxGeometry relative="1" as="geometry">
            <mxPoint x="1000" y="701.7142857142856" as="targetPoint" />
          </mxGeometry>
        </mxCell>
        <mxCell id="4in6TA6v4UdcMgMGvu6u-28" value="&lt;div&gt;hasil&lt;/div&gt;" style="shape=parallelogram;perimeter=parallelogramPerimeter;whiteSpace=wrap;html=1;fixedSize=1;" vertex="1" parent="1">
          <mxGeometry x="850" y="660" width="120" height="60" as="geometry" />
        </mxCell>
        <mxCell id="4in6TA6v4UdcMgMGvu6u-31" style="edgeStyle=orthogonalEdgeStyle;rounded=0;orthogonalLoop=1;jettySize=auto;html=1;exitX=1;exitY=0.5;exitDx=0;exitDy=0;" edge="1" target="4in6TA6v4UdcMgMGvu6u-33" parent="1">
          <mxGeometry relative="1" as="geometry">
            <mxPoint x="400" y="820" as="sourcePoint" />
          </mxGeometry>
        </mxCell>
        <mxCell id="4in6TA6v4UdcMgMGvu6u-76" value="benar" style="edgeLabel;html=1;align=center;verticalAlign=middle;resizable=0;points=[];" vertex="1" connectable="0" parent="4in6TA6v4UdcMgMGvu6u-31">
          <mxGeometry x="-0.2158" y="-2" relative="1" as="geometry">
            <mxPoint as="offset" />
          </mxGeometry>
        </mxCell>
        <mxCell id="4in6TA6v4UdcMgMGvu6u-32" style="edgeStyle=orthogonalEdgeStyle;rounded=0;orthogonalLoop=1;jettySize=auto;html=1;exitX=1;exitY=0.5;exitDx=0;exitDy=0;" edge="1" source="4in6TA6v4UdcMgMGvu6u-33" parent="1">
          <mxGeometry relative="1" as="geometry">
            <mxPoint x="670" y="820" as="targetPoint" />
          </mxGeometry>
        </mxCell>
        <mxCell id="4in6TA6v4UdcMgMGvu6u-33" value="Masukkan jumlah" style="shape=parallelogram;perimeter=parallelogramPerimeter;whiteSpace=wrap;html=1;fixedSize=1;" vertex="1" parent="1">
          <mxGeometry x="470" y="790" width="120" height="60" as="geometry" />
        </mxCell>
        <mxCell id="4in6TA6v4UdcMgMGvu6u-34" value="" style="endArrow=classic;html=1;rounded=0;entryX=0;entryY=0;entryDx=0;entryDy=0;" edge="1" parent="1">
          <mxGeometry width="50" height="50" relative="1" as="geometry">
            <mxPoint x="420" y="801" as="sourcePoint" />
            <mxPoint x="487" y="800" as="targetPoint" />
          </mxGeometry>
        </mxCell>
        <mxCell id="4in6TA6v4UdcMgMGvu6u-35" value="" style="edgeStyle=orthogonalEdgeStyle;rounded=0;orthogonalLoop=1;jettySize=auto;html=1;" edge="1" source="4in6TA6v4UdcMgMGvu6u-36" target="4in6TA6v4UdcMgMGvu6u-37" parent="1">
          <mxGeometry relative="1" as="geometry" />
        </mxCell>
        <mxCell id="4in6TA6v4UdcMgMGvu6u-36" value="(jumlah / kurs_usd)" style="rounded=0;whiteSpace=wrap;html=1;" vertex="1" parent="1">
          <mxGeometry x="670" y="790" width="120" height="60" as="geometry" />
        </mxCell>
        <mxCell id="4in6TA6v4UdcMgMGvu6u-38" style="edgeStyle=orthogonalEdgeStyle;rounded=0;orthogonalLoop=1;jettySize=auto;html=1;exitX=1;exitY=0.5;exitDx=0;exitDy=0;" edge="1" parent="1" source="4in6TA6v4UdcMgMGvu6u-37">
          <mxGeometry relative="1" as="geometry">
            <mxPoint x="1100" y="690" as="targetPoint" />
          </mxGeometry>
        </mxCell>
        <mxCell id="4in6TA6v4UdcMgMGvu6u-84" style="edgeStyle=orthogonalEdgeStyle;rounded=0;orthogonalLoop=1;jettySize=auto;html=1;exitX=1;exitY=0.75;exitDx=0;exitDy=0;" edge="1" parent="1" source="4in6TA6v4UdcMgMGvu6u-37">
          <mxGeometry relative="1" as="geometry">
            <mxPoint x="990" y="831.2380952380952" as="targetPoint" />
          </mxGeometry>
        </mxCell>
        <mxCell id="4in6TA6v4UdcMgMGvu6u-37" value="&lt;div&gt;hasil&lt;/div&gt;" style="shape=parallelogram;perimeter=parallelogramPerimeter;whiteSpace=wrap;html=1;fixedSize=1;" vertex="1" parent="1">
          <mxGeometry x="850" y="790" width="120" height="60" as="geometry" />
        </mxCell>
        <mxCell id="4in6TA6v4UdcMgMGvu6u-39" style="edgeStyle=orthogonalEdgeStyle;rounded=0;orthogonalLoop=1;jettySize=auto;html=1;exitX=1;exitY=0.5;exitDx=0;exitDy=0;" edge="1" target="4in6TA6v4UdcMgMGvu6u-41" parent="1">
          <mxGeometry relative="1" as="geometry">
            <mxPoint x="400" y="950" as="sourcePoint" />
          </mxGeometry>
        </mxCell>
        <mxCell id="4in6TA6v4UdcMgMGvu6u-74" value="benar" style="edgeLabel;html=1;align=center;verticalAlign=middle;resizable=0;points=[];" vertex="1" connectable="0" parent="4in6TA6v4UdcMgMGvu6u-39">
          <mxGeometry x="-0.1213" y="-2" relative="1" as="geometry">
            <mxPoint x="-2" y="1" as="offset" />
          </mxGeometry>
        </mxCell>
        <mxCell id="4in6TA6v4UdcMgMGvu6u-40" style="edgeStyle=orthogonalEdgeStyle;rounded=0;orthogonalLoop=1;jettySize=auto;html=1;exitX=1;exitY=0.5;exitDx=0;exitDy=0;" edge="1" source="4in6TA6v4UdcMgMGvu6u-41" parent="1">
          <mxGeometry relative="1" as="geometry">
            <mxPoint x="670" y="950" as="targetPoint" />
          </mxGeometry>
        </mxCell>
        <mxCell id="4in6TA6v4UdcMgMGvu6u-41" value="Masukkan jumlah" style="shape=parallelogram;perimeter=parallelogramPerimeter;whiteSpace=wrap;html=1;fixedSize=1;" vertex="1" parent="1">
          <mxGeometry x="470" y="920" width="120" height="60" as="geometry" />
        </mxCell>
        <mxCell id="4in6TA6v4UdcMgMGvu6u-42" value="" style="endArrow=classic;html=1;rounded=0;entryX=0;entryY=0;entryDx=0;entryDy=0;" edge="1" parent="1">
          <mxGeometry width="50" height="50" relative="1" as="geometry">
            <mxPoint x="420" y="931" as="sourcePoint" />
            <mxPoint x="487" y="930" as="targetPoint" />
          </mxGeometry>
        </mxCell>
        <mxCell id="4in6TA6v4UdcMgMGvu6u-43" value="" style="edgeStyle=orthogonalEdgeStyle;rounded=0;orthogonalLoop=1;jettySize=auto;html=1;" edge="1" source="4in6TA6v4UdcMgMGvu6u-44" target="4in6TA6v4UdcMgMGvu6u-45" parent="1">
          <mxGeometry relative="1" as="geometry" />
        </mxCell>
        <mxCell id="4in6TA6v4UdcMgMGvu6u-44" value="jumlah / kurs_euro" style="rounded=0;whiteSpace=wrap;html=1;" vertex="1" parent="1">
          <mxGeometry x="670" y="920" width="120" height="60" as="geometry" />
        </mxCell>
        <mxCell id="4in6TA6v4UdcMgMGvu6u-46" style="edgeStyle=orthogonalEdgeStyle;rounded=0;orthogonalLoop=1;jettySize=auto;html=1;exitX=1;exitY=0.5;exitDx=0;exitDy=0;" edge="1" parent="1" source="4in6TA6v4UdcMgMGvu6u-45">
          <mxGeometry relative="1" as="geometry">
            <mxPoint x="1100" y="820" as="targetPoint" />
          </mxGeometry>
        </mxCell>
        <mxCell id="4in6TA6v4UdcMgMGvu6u-85" style="edgeStyle=orthogonalEdgeStyle;rounded=0;orthogonalLoop=1;jettySize=auto;html=1;exitX=1;exitY=0.75;exitDx=0;exitDy=0;" edge="1" parent="1" source="4in6TA6v4UdcMgMGvu6u-45">
          <mxGeometry relative="1" as="geometry">
            <mxPoint x="1000" y="961.7142857142856" as="targetPoint" />
          </mxGeometry>
        </mxCell>
        <mxCell id="4in6TA6v4UdcMgMGvu6u-45" value="&lt;div&gt;hasil&lt;/div&gt;" style="shape=parallelogram;perimeter=parallelogramPerimeter;whiteSpace=wrap;html=1;fixedSize=1;" vertex="1" parent="1">
          <mxGeometry x="850" y="920" width="120" height="60" as="geometry" />
        </mxCell>
        <mxCell id="4in6TA6v4UdcMgMGvu6u-47" style="edgeStyle=orthogonalEdgeStyle;rounded=0;orthogonalLoop=1;jettySize=auto;html=1;exitX=1;exitY=0.5;exitDx=0;exitDy=0;" edge="1" source="4in6TA6v4UdcMgMGvu6u-48" parent="1">
          <mxGeometry relative="1" as="geometry">
            <mxPoint x="660" y="1110" as="targetPoint" />
          </mxGeometry>
        </mxCell>
        <mxCell id="4in6TA6v4UdcMgMGvu6u-48" value="Masukkan jumlah" style="shape=parallelogram;perimeter=parallelogramPerimeter;whiteSpace=wrap;html=1;fixedSize=1;" vertex="1" parent="1">
          <mxGeometry x="460" y="1080" width="120" height="60" as="geometry" />
        </mxCell>
        <mxCell id="4in6TA6v4UdcMgMGvu6u-49" value="" style="endArrow=classic;html=1;rounded=0;entryX=0;entryY=0;entryDx=0;entryDy=0;" edge="1" parent="1">
          <mxGeometry width="50" height="50" relative="1" as="geometry">
            <mxPoint x="410" y="1091" as="sourcePoint" />
            <mxPoint x="477" y="1090" as="targetPoint" />
          </mxGeometry>
        </mxCell>
        <mxCell id="4in6TA6v4UdcMgMGvu6u-50" value="" style="edgeStyle=orthogonalEdgeStyle;rounded=0;orthogonalLoop=1;jettySize=auto;html=1;" edge="1" source="4in6TA6v4UdcMgMGvu6u-51" target="4in6TA6v4UdcMgMGvu6u-52" parent="1">
          <mxGeometry relative="1" as="geometry" />
        </mxCell>
        <mxCell id="4in6TA6v4UdcMgMGvu6u-51" value="(jumlah / kurs_euro)" style="rounded=0;whiteSpace=wrap;html=1;" vertex="1" parent="1">
          <mxGeometry x="660" y="1080" width="120" height="60" as="geometry" />
        </mxCell>
        <mxCell id="4in6TA6v4UdcMgMGvu6u-54" style="edgeStyle=orthogonalEdgeStyle;rounded=0;orthogonalLoop=1;jettySize=auto;html=1;exitX=1;exitY=0.5;exitDx=0;exitDy=0;" edge="1" parent="1" source="4in6TA6v4UdcMgMGvu6u-52">
          <mxGeometry relative="1" as="geometry">
            <mxPoint x="1100" y="950" as="targetPoint" />
          </mxGeometry>
        </mxCell>
        <mxCell id="4in6TA6v4UdcMgMGvu6u-86" style="edgeStyle=orthogonalEdgeStyle;rounded=0;orthogonalLoop=1;jettySize=auto;html=1;exitX=1;exitY=0.75;exitDx=0;exitDy=0;" edge="1" parent="1" source="4in6TA6v4UdcMgMGvu6u-52">
          <mxGeometry relative="1" as="geometry">
            <mxPoint x="980" y="1121.7142857142856" as="targetPoint" />
          </mxGeometry>
        </mxCell>
        <mxCell id="4in6TA6v4UdcMgMGvu6u-52" value="&lt;div&gt;hasil&lt;/div&gt;" style="shape=parallelogram;perimeter=parallelogramPerimeter;whiteSpace=wrap;html=1;fixedSize=1;" vertex="1" parent="1">
          <mxGeometry x="840" y="1080" width="120" height="60" as="geometry" />
        </mxCell>
        <mxCell id="4in6TA6v4UdcMgMGvu6u-63" value="selesai" style="strokeWidth=2;html=1;shape=mxgraph.flowchart.terminator;whiteSpace=wrap;" vertex="1" parent="1">
          <mxGeometry x="309.99523809523805" y="1340" width="100" height="60" as="geometry" />
        </mxCell>
        <mxCell id="4in6TA6v4UdcMgMGvu6u-69" style="edgeStyle=orthogonalEdgeStyle;rounded=0;orthogonalLoop=1;jettySize=auto;html=1;exitX=0.5;exitY=1;exitDx=0;exitDy=0;entryX=0.5;entryY=0;entryDx=0;entryDy=0;entryPerimeter=0;" edge="1" parent="1" source="skjKZLAa6a59sgEuuwGW-8" target="4in6TA6v4UdcMgMGvu6u-63">
          <mxGeometry relative="1" as="geometry" />
        </mxCell>
        <mxCell id="4in6TA6v4UdcMgMGvu6u-70" value="benar" style="edgeLabel;html=1;align=center;verticalAlign=middle;resizable=0;points=[];" vertex="1" connectable="0" parent="4in6TA6v4UdcMgMGvu6u-69">
          <mxGeometry x="-0.1048" relative="1" as="geometry">
            <mxPoint as="offset" />
          </mxGeometry>
        </mxCell>
      </root>
    </mxGraphModel>
  </diagram>
  <diagram name="Konversi Jarak" id="VqFISjNZ2FYANpZFMybJ">
    <mxGraphModel dx="880" dy="508" grid="1" gridSize="10" guides="1" tooltips="1" connect="1" arrows="1" fold="1" page="1" pageScale="1" pageWidth="2000" pageHeight="2000" math="0" shadow="0">
      <root>
        <mxCell id="7Zri0SN4NDki_VFw5vtJ-0" />
        <mxCell id="7Zri0SN4NDki_VFw5vtJ-1" parent="7Zri0SN4NDki_VFw5vtJ-0" />
        <mxCell id="7Zri0SN4NDki_VFw5vtJ-2" style="edgeStyle=orthogonalEdgeStyle;rounded=0;orthogonalLoop=1;jettySize=auto;html=1;exitX=0.5;exitY=1;exitDx=0;exitDy=0;entryX=0.5;entryY=0;entryDx=0;entryDy=0;" edge="1" parent="7Zri0SN4NDki_VFw5vtJ-1" source="7Zri0SN4NDki_VFw5vtJ-3">
          <mxGeometry relative="1" as="geometry">
            <mxPoint x="360" y="140" as="targetPoint" />
          </mxGeometry>
        </mxCell>
        <mxCell id="7Zri0SN4NDki_VFw5vtJ-3" value="Konversi Jarak" style="verticalLabelPosition=bottom;verticalAlign=top;html=1;shape=offPageConnector;rounded=0;size=0.5;" vertex="1" parent="7Zri0SN4NDki_VFw5vtJ-1">
          <mxGeometry x="330" y="20" width="60" height="60" as="geometry" />
        </mxCell>
        <mxCell id="7Zri0SN4NDki_VFw5vtJ-4" style="edgeStyle=orthogonalEdgeStyle;rounded=0;orthogonalLoop=1;jettySize=auto;html=1;exitX=0.5;exitY=1;exitDx=0;exitDy=0;exitPerimeter=0;entryX=0.5;entryY=0;entryDx=0;entryDy=0;" edge="1" parent="7Zri0SN4NDki_VFw5vtJ-1" source="7Zri0SN4NDki_VFw5vtJ-5" target="7Zri0SN4NDki_VFw5vtJ-7">
          <mxGeometry relative="1" as="geometry" />
        </mxCell>
        <mxCell id="7Zri0SN4NDki_VFw5vtJ-5" value="mulai" style="strokeWidth=2;html=1;shape=mxgraph.flowchart.terminator;whiteSpace=wrap;" vertex="1" parent="7Zri0SN4NDki_VFw5vtJ-1">
          <mxGeometry x="310" y="140" width="100" height="60" as="geometry" />
        </mxCell>
        <mxCell id="7Zri0SN4NDki_VFw5vtJ-6" style="edgeStyle=orthogonalEdgeStyle;rounded=0;orthogonalLoop=1;jettySize=auto;html=1;exitX=0.5;exitY=1;exitDx=0;exitDy=0;entryX=0.5;entryY=0;entryDx=0;entryDy=0;" edge="1" parent="7Zri0SN4NDki_VFw5vtJ-1" source="7Zri0SN4NDki_VFw5vtJ-7" target="7Zri0SN4NDki_VFw5vtJ-13">
          <mxGeometry relative="1" as="geometry" />
        </mxCell>
        <mxCell id="7Zri0SN4NDki_VFw5vtJ-7" value="Konversi Jarak:&lt;br&gt;1. Kilometer ke Meter&lt;br&gt;2. Kilometer ke Centimeter&lt;br&gt;3. Meter ke Kilometer&lt;br&gt;4. Meter ke Centimeter&lt;br&gt;5. Centimeter ke Kilometer&lt;br&gt;6. Centimeter ke Meter&lt;br&gt;7. Kembali" style="shape=parallelogram;perimeter=parallelogramPerimeter;whiteSpace=wrap;html=1;fixedSize=1;" vertex="1" parent="7Zri0SN4NDki_VFw5vtJ-1">
          <mxGeometry x="250" y="240" width="220" height="120" as="geometry" />
        </mxCell>
        <mxCell id="7Zri0SN4NDki_VFw5vtJ-8" value="" style="endArrow=classic;html=1;rounded=0;entryX=0;entryY=0;entryDx=0;entryDy=0;" edge="1" parent="7Zri0SN4NDki_VFw5vtJ-1">
          <mxGeometry width="50" height="50" relative="1" as="geometry">
            <mxPoint x="200" y="260" as="sourcePoint" />
            <mxPoint x="267" y="259" as="targetPoint" />
          </mxGeometry>
        </mxCell>
        <mxCell id="7Zri0SN4NDki_VFw5vtJ-9" style="edgeStyle=orthogonalEdgeStyle;rounded=0;orthogonalLoop=1;jettySize=auto;html=1;exitX=1;exitY=0.5;exitDx=0;exitDy=0;" edge="1" parent="7Zri0SN4NDki_VFw5vtJ-1" source="7Zri0SN4NDki_VFw5vtJ-13" target="7Zri0SN4NDki_VFw5vtJ-37">
          <mxGeometry relative="1" as="geometry" />
        </mxCell>
        <mxCell id="7Zri0SN4NDki_VFw5vtJ-10" value="benar" style="edgeLabel;html=1;align=center;verticalAlign=middle;resizable=0;points=[];" vertex="1" connectable="0" parent="7Zri0SN4NDki_VFw5vtJ-9">
          <mxGeometry x="-0.271" y="1" relative="1" as="geometry">
            <mxPoint as="offset" />
          </mxGeometry>
        </mxCell>
        <mxCell id="7Zri0SN4NDki_VFw5vtJ-11" style="edgeStyle=orthogonalEdgeStyle;rounded=0;orthogonalLoop=1;jettySize=auto;html=1;exitX=0.5;exitY=1;exitDx=0;exitDy=0;entryX=0.5;entryY=0;entryDx=0;entryDy=0;" edge="1" parent="7Zri0SN4NDki_VFw5vtJ-1" source="7Zri0SN4NDki_VFw5vtJ-13" target="7Zri0SN4NDki_VFw5vtJ-16">
          <mxGeometry relative="1" as="geometry" />
        </mxCell>
        <mxCell id="7Zri0SN4NDki_VFw5vtJ-12" value="salah" style="edgeLabel;html=1;align=center;verticalAlign=middle;resizable=0;points=[];" vertex="1" connectable="0" parent="7Zri0SN4NDki_VFw5vtJ-11">
          <mxGeometry x="-0.2648" y="1" relative="1" as="geometry">
            <mxPoint as="offset" />
          </mxGeometry>
        </mxCell>
        <mxCell id="7Zri0SN4NDki_VFw5vtJ-13" value="pilihan 1" style="rhombus;whiteSpace=wrap;html=1;" vertex="1" parent="7Zri0SN4NDki_VFw5vtJ-1">
          <mxGeometry x="320" y="390" width="80" height="80" as="geometry" />
        </mxCell>
        <mxCell id="7Zri0SN4NDki_VFw5vtJ-14" style="edgeStyle=orthogonalEdgeStyle;rounded=0;orthogonalLoop=1;jettySize=auto;html=1;exitX=0.5;exitY=1;exitDx=0;exitDy=0;entryX=0.5;entryY=0;entryDx=0;entryDy=0;" edge="1" parent="7Zri0SN4NDki_VFw5vtJ-1" source="7Zri0SN4NDki_VFw5vtJ-16" target="7Zri0SN4NDki_VFw5vtJ-21">
          <mxGeometry relative="1" as="geometry" />
        </mxCell>
        <mxCell id="7Zri0SN4NDki_VFw5vtJ-15" value="salah" style="edgeLabel;html=1;align=center;verticalAlign=middle;resizable=0;points=[];" vertex="1" connectable="0" parent="7Zri0SN4NDki_VFw5vtJ-14">
          <mxGeometry x="-0.4362" y="-4" relative="1" as="geometry">
            <mxPoint as="offset" />
          </mxGeometry>
        </mxCell>
        <mxCell id="7Zri0SN4NDki_VFw5vtJ-16" value="pilihan 2" style="rhombus;whiteSpace=wrap;html=1;" vertex="1" parent="7Zri0SN4NDki_VFw5vtJ-1">
          <mxGeometry x="320" y="520" width="80" height="80" as="geometry" />
        </mxCell>
        <mxCell id="7Zri0SN4NDki_VFw5vtJ-17" style="edgeStyle=orthogonalEdgeStyle;rounded=0;orthogonalLoop=1;jettySize=auto;html=1;exitX=1;exitY=0.5;exitDx=0;exitDy=0;" edge="1" parent="7Zri0SN4NDki_VFw5vtJ-1" source="7Zri0SN4NDki_VFw5vtJ-21" target="7Zri0SN4NDki_VFw5vtJ-55">
          <mxGeometry relative="1" as="geometry" />
        </mxCell>
        <mxCell id="7Zri0SN4NDki_VFw5vtJ-18" value="benar" style="edgeLabel;html=1;align=center;verticalAlign=middle;resizable=0;points=[];" vertex="1" connectable="0" parent="7Zri0SN4NDki_VFw5vtJ-17">
          <mxGeometry x="-0.0929" y="1" relative="1" as="geometry">
            <mxPoint as="offset" />
          </mxGeometry>
        </mxCell>
        <mxCell id="7Zri0SN4NDki_VFw5vtJ-19" style="edgeStyle=orthogonalEdgeStyle;rounded=0;orthogonalLoop=1;jettySize=auto;html=1;exitX=0.5;exitY=1;exitDx=0;exitDy=0;entryX=0.5;entryY=0;entryDx=0;entryDy=0;" edge="1" parent="7Zri0SN4NDki_VFw5vtJ-1" source="7Zri0SN4NDki_VFw5vtJ-21" target="7Zri0SN4NDki_VFw5vtJ-24">
          <mxGeometry relative="1" as="geometry" />
        </mxCell>
        <mxCell id="7Zri0SN4NDki_VFw5vtJ-20" value="salah" style="edgeLabel;html=1;align=center;verticalAlign=middle;resizable=0;points=[];" vertex="1" connectable="0" parent="7Zri0SN4NDki_VFw5vtJ-19">
          <mxGeometry x="-0.2267" y="2" relative="1" as="geometry">
            <mxPoint as="offset" />
          </mxGeometry>
        </mxCell>
        <mxCell id="7Zri0SN4NDki_VFw5vtJ-21" value="pilihan 3" style="rhombus;whiteSpace=wrap;html=1;" vertex="1" parent="7Zri0SN4NDki_VFw5vtJ-1">
          <mxGeometry x="320" y="650" width="80" height="80" as="geometry" />
        </mxCell>
        <mxCell id="7Zri0SN4NDki_VFw5vtJ-22" style="edgeStyle=orthogonalEdgeStyle;rounded=0;orthogonalLoop=1;jettySize=auto;html=1;exitX=0.5;exitY=1;exitDx=0;exitDy=0;entryX=0.5;entryY=0;entryDx=0;entryDy=0;" edge="1" parent="7Zri0SN4NDki_VFw5vtJ-1" source="7Zri0SN4NDki_VFw5vtJ-24" target="7Zri0SN4NDki_VFw5vtJ-27">
          <mxGeometry relative="1" as="geometry" />
        </mxCell>
        <mxCell id="7Zri0SN4NDki_VFw5vtJ-23" value="salah" style="edgeLabel;html=1;align=center;verticalAlign=middle;resizable=0;points=[];" vertex="1" connectable="0" parent="7Zri0SN4NDki_VFw5vtJ-22">
          <mxGeometry x="-0.3219" y="4" relative="1" as="geometry">
            <mxPoint as="offset" />
          </mxGeometry>
        </mxCell>
        <mxCell id="7Zri0SN4NDki_VFw5vtJ-24" value="pilihan 4" style="rhombus;whiteSpace=wrap;html=1;" vertex="1" parent="7Zri0SN4NDki_VFw5vtJ-1">
          <mxGeometry x="320" y="780" width="80" height="80" as="geometry" />
        </mxCell>
        <mxCell id="7Zri0SN4NDki_VFw5vtJ-25" style="edgeStyle=orthogonalEdgeStyle;rounded=0;orthogonalLoop=1;jettySize=auto;html=1;exitX=0.5;exitY=1;exitDx=0;exitDy=0;entryX=0.5;entryY=0;entryDx=0;entryDy=0;" edge="1" parent="7Zri0SN4NDki_VFw5vtJ-1" source="7Zri0SN4NDki_VFw5vtJ-27" target="7Zri0SN4NDki_VFw5vtJ-32">
          <mxGeometry relative="1" as="geometry" />
        </mxCell>
        <mxCell id="7Zri0SN4NDki_VFw5vtJ-26" value="salah" style="edgeLabel;html=1;align=center;verticalAlign=middle;resizable=0;points=[];" vertex="1" connectable="0" parent="7Zri0SN4NDki_VFw5vtJ-25">
          <mxGeometry x="-0.4214" y="2" relative="1" as="geometry">
            <mxPoint as="offset" />
          </mxGeometry>
        </mxCell>
        <mxCell id="7Zri0SN4NDki_VFw5vtJ-27" value="pilihan 5" style="rhombus;whiteSpace=wrap;html=1;" vertex="1" parent="7Zri0SN4NDki_VFw5vtJ-1">
          <mxGeometry x="320" y="910" width="80" height="80" as="geometry" />
        </mxCell>
        <mxCell id="7Zri0SN4NDki_VFw5vtJ-28" style="edgeStyle=orthogonalEdgeStyle;rounded=0;orthogonalLoop=1;jettySize=auto;html=1;exitX=1;exitY=0.5;exitDx=0;exitDy=0;entryX=0;entryY=0.5;entryDx=0;entryDy=0;" edge="1" parent="7Zri0SN4NDki_VFw5vtJ-1" source="7Zri0SN4NDki_VFw5vtJ-32" target="7Zri0SN4NDki_VFw5vtJ-83">
          <mxGeometry relative="1" as="geometry" />
        </mxCell>
        <mxCell id="7Zri0SN4NDki_VFw5vtJ-29" value="benar" style="edgeLabel;html=1;align=center;verticalAlign=middle;resizable=0;points=[];" vertex="1" connectable="0" parent="7Zri0SN4NDki_VFw5vtJ-28">
          <mxGeometry x="-0.0993" y="1" relative="1" as="geometry">
            <mxPoint as="offset" />
          </mxGeometry>
        </mxCell>
        <mxCell id="7Zri0SN4NDki_VFw5vtJ-30" style="edgeStyle=orthogonalEdgeStyle;rounded=0;orthogonalLoop=1;jettySize=auto;html=1;exitX=0.5;exitY=1;exitDx=0;exitDy=0;entryX=0.5;entryY=0;entryDx=0;entryDy=0;" edge="1" parent="7Zri0SN4NDki_VFw5vtJ-1" source="7Zri0SN4NDki_VFw5vtJ-32" target="7Zri0SN4NDki_VFw5vtJ-35">
          <mxGeometry relative="1" as="geometry" />
        </mxCell>
        <mxCell id="7Zri0SN4NDki_VFw5vtJ-31" value="salah" style="edgeLabel;html=1;align=center;verticalAlign=middle;resizable=0;points=[];" vertex="1" connectable="0" parent="7Zri0SN4NDki_VFw5vtJ-30">
          <mxGeometry x="-0.3116" relative="1" as="geometry">
            <mxPoint as="offset" />
          </mxGeometry>
        </mxCell>
        <mxCell id="7Zri0SN4NDki_VFw5vtJ-32" value="pilihan 6" style="rhombus;whiteSpace=wrap;html=1;" vertex="1" parent="7Zri0SN4NDki_VFw5vtJ-1">
          <mxGeometry x="320" y="1070" width="80" height="80" as="geometry" />
        </mxCell>
        <mxCell id="7Zri0SN4NDki_VFw5vtJ-33" style="edgeStyle=orthogonalEdgeStyle;rounded=0;orthogonalLoop=1;jettySize=auto;html=1;exitX=1;exitY=0.5;exitDx=0;exitDy=0;" edge="1" parent="7Zri0SN4NDki_VFw5vtJ-1" source="7Zri0SN4NDki_VFw5vtJ-35">
          <mxGeometry relative="1" as="geometry">
            <mxPoint x="1100" y="1110" as="targetPoint" />
          </mxGeometry>
        </mxCell>
        <mxCell id="7Zri0SN4NDki_VFw5vtJ-34" value="salah" style="edgeLabel;html=1;align=center;verticalAlign=middle;resizable=0;points=[];" vertex="1" connectable="0" parent="7Zri0SN4NDki_VFw5vtJ-33">
          <mxGeometry x="-0.8878" y="3" relative="1" as="geometry">
            <mxPoint as="offset" />
          </mxGeometry>
        </mxCell>
        <mxCell id="7Zri0SN4NDki_VFw5vtJ-35" value="pilihan 7" style="rhombus;whiteSpace=wrap;html=1;" vertex="1" parent="7Zri0SN4NDki_VFw5vtJ-1">
          <mxGeometry x="320" y="1220" width="80" height="80" as="geometry" />
        </mxCell>
        <mxCell id="7Zri0SN4NDki_VFw5vtJ-36" style="edgeStyle=orthogonalEdgeStyle;rounded=0;orthogonalLoop=1;jettySize=auto;html=1;exitX=1;exitY=0.5;exitDx=0;exitDy=0;" edge="1" parent="7Zri0SN4NDki_VFw5vtJ-1" source="7Zri0SN4NDki_VFw5vtJ-37">
          <mxGeometry relative="1" as="geometry">
            <mxPoint x="700" y="430" as="targetPoint" />
          </mxGeometry>
        </mxCell>
        <mxCell id="7Zri0SN4NDki_VFw5vtJ-37" value="Masukkan jumlah" style="shape=parallelogram;perimeter=parallelogramPerimeter;whiteSpace=wrap;html=1;fixedSize=1;" vertex="1" parent="7Zri0SN4NDki_VFw5vtJ-1">
          <mxGeometry x="500" y="400" width="120" height="60" as="geometry" />
        </mxCell>
        <mxCell id="7Zri0SN4NDki_VFw5vtJ-38" value="" style="endArrow=classic;html=1;rounded=0;entryX=0;entryY=0;entryDx=0;entryDy=0;" edge="1" parent="7Zri0SN4NDki_VFw5vtJ-1">
          <mxGeometry width="50" height="50" relative="1" as="geometry">
            <mxPoint x="450" y="411" as="sourcePoint" />
            <mxPoint x="517" y="410" as="targetPoint" />
          </mxGeometry>
        </mxCell>
        <mxCell id="7Zri0SN4NDki_VFw5vtJ-39" value="" style="edgeStyle=orthogonalEdgeStyle;rounded=0;orthogonalLoop=1;jettySize=auto;html=1;" edge="1" parent="7Zri0SN4NDki_VFw5vtJ-1" source="7Zri0SN4NDki_VFw5vtJ-40" target="7Zri0SN4NDki_VFw5vtJ-42">
          <mxGeometry relative="1" as="geometry" />
        </mxCell>
        <mxCell id="7Zri0SN4NDki_VFw5vtJ-40" value="jumlah * 1000" style="rounded=0;whiteSpace=wrap;html=1;" vertex="1" parent="7Zri0SN4NDki_VFw5vtJ-1">
          <mxGeometry x="700" y="400" width="120" height="60" as="geometry" />
        </mxCell>
        <mxCell id="7Zri0SN4NDki_VFw5vtJ-41" style="edgeStyle=orthogonalEdgeStyle;rounded=0;orthogonalLoop=1;jettySize=auto;html=1;exitX=1;exitY=0.75;exitDx=0;exitDy=0;" edge="1" parent="7Zri0SN4NDki_VFw5vtJ-1" source="7Zri0SN4NDki_VFw5vtJ-42">
          <mxGeometry relative="1" as="geometry">
            <mxPoint x="1030" y="441.71428571428567" as="targetPoint" />
          </mxGeometry>
        </mxCell>
        <mxCell id="7Zri0SN4NDki_VFw5vtJ-42" value="&lt;div&gt;hasil&lt;/div&gt;" style="shape=parallelogram;perimeter=parallelogramPerimeter;whiteSpace=wrap;html=1;fixedSize=1;" vertex="1" parent="7Zri0SN4NDki_VFw5vtJ-1">
          <mxGeometry x="880" y="400" width="120" height="60" as="geometry" />
        </mxCell>
        <mxCell id="7Zri0SN4NDki_VFw5vtJ-43" style="edgeStyle=orthogonalEdgeStyle;rounded=0;orthogonalLoop=1;jettySize=auto;html=1;exitX=1;exitY=0.5;exitDx=0;exitDy=0;entryX=0.998;entryY=0.165;entryDx=0;entryDy=0;entryPerimeter=0;" edge="1" parent="7Zri0SN4NDki_VFw5vtJ-1" source="7Zri0SN4NDki_VFw5vtJ-42" target="7Zri0SN4NDki_VFw5vtJ-7">
          <mxGeometry relative="1" as="geometry">
            <Array as="points">
              <mxPoint x="1100" y="430" />
              <mxPoint x="1100" y="260" />
            </Array>
          </mxGeometry>
        </mxCell>
        <mxCell id="7Zri0SN4NDki_VFw5vtJ-44" style="edgeStyle=orthogonalEdgeStyle;rounded=0;orthogonalLoop=1;jettySize=auto;html=1;exitX=1;exitY=0.5;exitDx=0;exitDy=0;" edge="1" parent="7Zri0SN4NDki_VFw5vtJ-1" target="7Zri0SN4NDki_VFw5vtJ-47">
          <mxGeometry relative="1" as="geometry">
            <mxPoint x="400" y="560" as="sourcePoint" />
          </mxGeometry>
        </mxCell>
        <mxCell id="7Zri0SN4NDki_VFw5vtJ-45" value="benar" style="edgeLabel;html=1;align=center;verticalAlign=middle;resizable=0;points=[];" vertex="1" connectable="0" parent="7Zri0SN4NDki_VFw5vtJ-44">
          <mxGeometry x="-0.2396" relative="1" as="geometry">
            <mxPoint as="offset" />
          </mxGeometry>
        </mxCell>
        <mxCell id="7Zri0SN4NDki_VFw5vtJ-46" style="edgeStyle=orthogonalEdgeStyle;rounded=0;orthogonalLoop=1;jettySize=auto;html=1;exitX=1;exitY=0.5;exitDx=0;exitDy=0;" edge="1" parent="7Zri0SN4NDki_VFw5vtJ-1" source="7Zri0SN4NDki_VFw5vtJ-47">
          <mxGeometry relative="1" as="geometry">
            <mxPoint x="700" y="560" as="targetPoint" />
          </mxGeometry>
        </mxCell>
        <mxCell id="7Zri0SN4NDki_VFw5vtJ-47" value="Masukkan jumlah" style="shape=parallelogram;perimeter=parallelogramPerimeter;whiteSpace=wrap;html=1;fixedSize=1;" vertex="1" parent="7Zri0SN4NDki_VFw5vtJ-1">
          <mxGeometry x="500" y="530" width="120" height="60" as="geometry" />
        </mxCell>
        <mxCell id="7Zri0SN4NDki_VFw5vtJ-48" value="" style="endArrow=classic;html=1;rounded=0;entryX=0;entryY=0;entryDx=0;entryDy=0;" edge="1" parent="7Zri0SN4NDki_VFw5vtJ-1">
          <mxGeometry width="50" height="50" relative="1" as="geometry">
            <mxPoint x="450" y="541" as="sourcePoint" />
            <mxPoint x="517" y="540" as="targetPoint" />
          </mxGeometry>
        </mxCell>
        <mxCell id="7Zri0SN4NDki_VFw5vtJ-49" value="" style="edgeStyle=orthogonalEdgeStyle;rounded=0;orthogonalLoop=1;jettySize=auto;html=1;" edge="1" parent="7Zri0SN4NDki_VFw5vtJ-1" source="7Zri0SN4NDki_VFw5vtJ-50" target="7Zri0SN4NDki_VFw5vtJ-53">
          <mxGeometry relative="1" as="geometry" />
        </mxCell>
        <mxCell id="7Zri0SN4NDki_VFw5vtJ-50" value="jumlah * 100000" style="rounded=0;whiteSpace=wrap;html=1;" vertex="1" parent="7Zri0SN4NDki_VFw5vtJ-1">
          <mxGeometry x="700" y="530" width="120" height="60" as="geometry" />
        </mxCell>
        <mxCell id="7Zri0SN4NDki_VFw5vtJ-51" style="edgeStyle=orthogonalEdgeStyle;rounded=0;orthogonalLoop=1;jettySize=auto;html=1;exitX=1;exitY=0.75;exitDx=0;exitDy=0;" edge="1" parent="7Zri0SN4NDki_VFw5vtJ-1" source="7Zri0SN4NDki_VFw5vtJ-53">
          <mxGeometry relative="1" as="geometry">
            <mxPoint x="1030" y="571.7142857142857" as="targetPoint" />
          </mxGeometry>
        </mxCell>
        <mxCell id="7Zri0SN4NDki_VFw5vtJ-52" style="edgeStyle=orthogonalEdgeStyle;rounded=0;orthogonalLoop=1;jettySize=auto;html=1;exitX=1;exitY=0.5;exitDx=0;exitDy=0;" edge="1" parent="7Zri0SN4NDki_VFw5vtJ-1" source="7Zri0SN4NDki_VFw5vtJ-53">
          <mxGeometry relative="1" as="geometry">
            <mxPoint x="1100" y="430" as="targetPoint" />
          </mxGeometry>
        </mxCell>
        <mxCell id="7Zri0SN4NDki_VFw5vtJ-53" value="&lt;div&gt;hasil&lt;/div&gt;" style="shape=parallelogram;perimeter=parallelogramPerimeter;whiteSpace=wrap;html=1;fixedSize=1;" vertex="1" parent="7Zri0SN4NDki_VFw5vtJ-1">
          <mxGeometry x="880" y="530" width="120" height="60" as="geometry" />
        </mxCell>
        <mxCell id="7Zri0SN4NDki_VFw5vtJ-54" style="edgeStyle=orthogonalEdgeStyle;rounded=0;orthogonalLoop=1;jettySize=auto;html=1;exitX=1;exitY=0.5;exitDx=0;exitDy=0;" edge="1" parent="7Zri0SN4NDki_VFw5vtJ-1" source="7Zri0SN4NDki_VFw5vtJ-55">
          <mxGeometry relative="1" as="geometry">
            <mxPoint x="670" y="690" as="targetPoint" />
          </mxGeometry>
        </mxCell>
        <mxCell id="7Zri0SN4NDki_VFw5vtJ-55" value="Masukkan jumlah" style="shape=parallelogram;perimeter=parallelogramPerimeter;whiteSpace=wrap;html=1;fixedSize=1;" vertex="1" parent="7Zri0SN4NDki_VFw5vtJ-1">
          <mxGeometry x="470" y="660" width="120" height="60" as="geometry" />
        </mxCell>
        <mxCell id="7Zri0SN4NDki_VFw5vtJ-56" value="" style="endArrow=classic;html=1;rounded=0;entryX=0;entryY=0;entryDx=0;entryDy=0;" edge="1" parent="7Zri0SN4NDki_VFw5vtJ-1">
          <mxGeometry width="50" height="50" relative="1" as="geometry">
            <mxPoint x="420" y="671" as="sourcePoint" />
            <mxPoint x="487" y="670" as="targetPoint" />
          </mxGeometry>
        </mxCell>
        <mxCell id="7Zri0SN4NDki_VFw5vtJ-57" value="" style="edgeStyle=orthogonalEdgeStyle;rounded=0;orthogonalLoop=1;jettySize=auto;html=1;" edge="1" parent="7Zri0SN4NDki_VFw5vtJ-1" source="7Zri0SN4NDki_VFw5vtJ-58" target="7Zri0SN4NDki_VFw5vtJ-61">
          <mxGeometry relative="1" as="geometry" />
        </mxCell>
        <mxCell id="7Zri0SN4NDki_VFw5vtJ-58" value="jumlah / 1000" style="rounded=0;whiteSpace=wrap;html=1;" vertex="1" parent="7Zri0SN4NDki_VFw5vtJ-1">
          <mxGeometry x="670" y="660" width="120" height="60" as="geometry" />
        </mxCell>
        <mxCell id="7Zri0SN4NDki_VFw5vtJ-59" style="edgeStyle=orthogonalEdgeStyle;rounded=0;orthogonalLoop=1;jettySize=auto;html=1;exitX=1;exitY=0.5;exitDx=0;exitDy=0;" edge="1" parent="7Zri0SN4NDki_VFw5vtJ-1" source="7Zri0SN4NDki_VFw5vtJ-61">
          <mxGeometry relative="1" as="geometry">
            <mxPoint x="1100" y="560" as="targetPoint" />
          </mxGeometry>
        </mxCell>
        <mxCell id="7Zri0SN4NDki_VFw5vtJ-60" style="edgeStyle=orthogonalEdgeStyle;rounded=0;orthogonalLoop=1;jettySize=auto;html=1;exitX=1;exitY=0.75;exitDx=0;exitDy=0;" edge="1" parent="7Zri0SN4NDki_VFw5vtJ-1" source="7Zri0SN4NDki_VFw5vtJ-61">
          <mxGeometry relative="1" as="geometry">
            <mxPoint x="1000" y="701.7142857142856" as="targetPoint" />
          </mxGeometry>
        </mxCell>
        <mxCell id="7Zri0SN4NDki_VFw5vtJ-61" value="&lt;div&gt;hasil&lt;/div&gt;" style="shape=parallelogram;perimeter=parallelogramPerimeter;whiteSpace=wrap;html=1;fixedSize=1;" vertex="1" parent="7Zri0SN4NDki_VFw5vtJ-1">
          <mxGeometry x="850" y="660" width="120" height="60" as="geometry" />
        </mxCell>
        <mxCell id="7Zri0SN4NDki_VFw5vtJ-62" style="edgeStyle=orthogonalEdgeStyle;rounded=0;orthogonalLoop=1;jettySize=auto;html=1;exitX=1;exitY=0.5;exitDx=0;exitDy=0;" edge="1" parent="7Zri0SN4NDki_VFw5vtJ-1" target="7Zri0SN4NDki_VFw5vtJ-65">
          <mxGeometry relative="1" as="geometry">
            <mxPoint x="400" y="820" as="sourcePoint" />
          </mxGeometry>
        </mxCell>
        <mxCell id="7Zri0SN4NDki_VFw5vtJ-63" value="benar" style="edgeLabel;html=1;align=center;verticalAlign=middle;resizable=0;points=[];" vertex="1" connectable="0" parent="7Zri0SN4NDki_VFw5vtJ-62">
          <mxGeometry x="-0.2158" y="-2" relative="1" as="geometry">
            <mxPoint as="offset" />
          </mxGeometry>
        </mxCell>
        <mxCell id="7Zri0SN4NDki_VFw5vtJ-64" style="edgeStyle=orthogonalEdgeStyle;rounded=0;orthogonalLoop=1;jettySize=auto;html=1;exitX=1;exitY=0.5;exitDx=0;exitDy=0;" edge="1" parent="7Zri0SN4NDki_VFw5vtJ-1" source="7Zri0SN4NDki_VFw5vtJ-65">
          <mxGeometry relative="1" as="geometry">
            <mxPoint x="670" y="820" as="targetPoint" />
          </mxGeometry>
        </mxCell>
        <mxCell id="7Zri0SN4NDki_VFw5vtJ-65" value="Masukkan jumlah" style="shape=parallelogram;perimeter=parallelogramPerimeter;whiteSpace=wrap;html=1;fixedSize=1;" vertex="1" parent="7Zri0SN4NDki_VFw5vtJ-1">
          <mxGeometry x="470" y="790" width="120" height="60" as="geometry" />
        </mxCell>
        <mxCell id="7Zri0SN4NDki_VFw5vtJ-66" value="" style="endArrow=classic;html=1;rounded=0;entryX=0;entryY=0;entryDx=0;entryDy=0;" edge="1" parent="7Zri0SN4NDki_VFw5vtJ-1">
          <mxGeometry width="50" height="50" relative="1" as="geometry">
            <mxPoint x="420" y="801" as="sourcePoint" />
            <mxPoint x="487" y="800" as="targetPoint" />
          </mxGeometry>
        </mxCell>
        <mxCell id="7Zri0SN4NDki_VFw5vtJ-67" value="" style="edgeStyle=orthogonalEdgeStyle;rounded=0;orthogonalLoop=1;jettySize=auto;html=1;" edge="1" parent="7Zri0SN4NDki_VFw5vtJ-1" source="7Zri0SN4NDki_VFw5vtJ-68" target="7Zri0SN4NDki_VFw5vtJ-71">
          <mxGeometry relative="1" as="geometry" />
        </mxCell>
        <mxCell id="7Zri0SN4NDki_VFw5vtJ-68" value="jumlah * 100" style="rounded=0;whiteSpace=wrap;html=1;" vertex="1" parent="7Zri0SN4NDki_VFw5vtJ-1">
          <mxGeometry x="670" y="790" width="120" height="60" as="geometry" />
        </mxCell>
        <mxCell id="7Zri0SN4NDki_VFw5vtJ-69" style="edgeStyle=orthogonalEdgeStyle;rounded=0;orthogonalLoop=1;jettySize=auto;html=1;exitX=1;exitY=0.5;exitDx=0;exitDy=0;" edge="1" parent="7Zri0SN4NDki_VFw5vtJ-1" source="7Zri0SN4NDki_VFw5vtJ-71">
          <mxGeometry relative="1" as="geometry">
            <mxPoint x="1100" y="690" as="targetPoint" />
          </mxGeometry>
        </mxCell>
        <mxCell id="7Zri0SN4NDki_VFw5vtJ-70" style="edgeStyle=orthogonalEdgeStyle;rounded=0;orthogonalLoop=1;jettySize=auto;html=1;exitX=1;exitY=0.75;exitDx=0;exitDy=0;" edge="1" parent="7Zri0SN4NDki_VFw5vtJ-1" source="7Zri0SN4NDki_VFw5vtJ-71">
          <mxGeometry relative="1" as="geometry">
            <mxPoint x="990" y="831.2380952380952" as="targetPoint" />
          </mxGeometry>
        </mxCell>
        <mxCell id="7Zri0SN4NDki_VFw5vtJ-71" value="&lt;div&gt;hasil&lt;/div&gt;" style="shape=parallelogram;perimeter=parallelogramPerimeter;whiteSpace=wrap;html=1;fixedSize=1;" vertex="1" parent="7Zri0SN4NDki_VFw5vtJ-1">
          <mxGeometry x="850" y="790" width="120" height="60" as="geometry" />
        </mxCell>
        <mxCell id="7Zri0SN4NDki_VFw5vtJ-72" style="edgeStyle=orthogonalEdgeStyle;rounded=0;orthogonalLoop=1;jettySize=auto;html=1;exitX=1;exitY=0.5;exitDx=0;exitDy=0;" edge="1" parent="7Zri0SN4NDki_VFw5vtJ-1" target="7Zri0SN4NDki_VFw5vtJ-75">
          <mxGeometry relative="1" as="geometry">
            <mxPoint x="400" y="950" as="sourcePoint" />
          </mxGeometry>
        </mxCell>
        <mxCell id="7Zri0SN4NDki_VFw5vtJ-73" value="benar" style="edgeLabel;html=1;align=center;verticalAlign=middle;resizable=0;points=[];" vertex="1" connectable="0" parent="7Zri0SN4NDki_VFw5vtJ-72">
          <mxGeometry x="-0.1213" y="-2" relative="1" as="geometry">
            <mxPoint x="-2" y="1" as="offset" />
          </mxGeometry>
        </mxCell>
        <mxCell id="7Zri0SN4NDki_VFw5vtJ-74" style="edgeStyle=orthogonalEdgeStyle;rounded=0;orthogonalLoop=1;jettySize=auto;html=1;exitX=1;exitY=0.5;exitDx=0;exitDy=0;" edge="1" parent="7Zri0SN4NDki_VFw5vtJ-1" source="7Zri0SN4NDki_VFw5vtJ-75">
          <mxGeometry relative="1" as="geometry">
            <mxPoint x="670" y="950" as="targetPoint" />
          </mxGeometry>
        </mxCell>
        <mxCell id="7Zri0SN4NDki_VFw5vtJ-75" value="Masukkan jumlah" style="shape=parallelogram;perimeter=parallelogramPerimeter;whiteSpace=wrap;html=1;fixedSize=1;" vertex="1" parent="7Zri0SN4NDki_VFw5vtJ-1">
          <mxGeometry x="470" y="920" width="120" height="60" as="geometry" />
        </mxCell>
        <mxCell id="7Zri0SN4NDki_VFw5vtJ-76" value="" style="endArrow=classic;html=1;rounded=0;entryX=0;entryY=0;entryDx=0;entryDy=0;" edge="1" parent="7Zri0SN4NDki_VFw5vtJ-1">
          <mxGeometry width="50" height="50" relative="1" as="geometry">
            <mxPoint x="420" y="931" as="sourcePoint" />
            <mxPoint x="487" y="930" as="targetPoint" />
          </mxGeometry>
        </mxCell>
        <mxCell id="7Zri0SN4NDki_VFw5vtJ-77" value="" style="edgeStyle=orthogonalEdgeStyle;rounded=0;orthogonalLoop=1;jettySize=auto;html=1;" edge="1" parent="7Zri0SN4NDki_VFw5vtJ-1" source="7Zri0SN4NDki_VFw5vtJ-78" target="7Zri0SN4NDki_VFw5vtJ-81">
          <mxGeometry relative="1" as="geometry" />
        </mxCell>
        <mxCell id="7Zri0SN4NDki_VFw5vtJ-78" value="jumlah / 100000" style="rounded=0;whiteSpace=wrap;html=1;" vertex="1" parent="7Zri0SN4NDki_VFw5vtJ-1">
          <mxGeometry x="670" y="920" width="120" height="60" as="geometry" />
        </mxCell>
        <mxCell id="7Zri0SN4NDki_VFw5vtJ-79" style="edgeStyle=orthogonalEdgeStyle;rounded=0;orthogonalLoop=1;jettySize=auto;html=1;exitX=1;exitY=0.5;exitDx=0;exitDy=0;" edge="1" parent="7Zri0SN4NDki_VFw5vtJ-1" source="7Zri0SN4NDki_VFw5vtJ-81">
          <mxGeometry relative="1" as="geometry">
            <mxPoint x="1100" y="820" as="targetPoint" />
          </mxGeometry>
        </mxCell>
        <mxCell id="7Zri0SN4NDki_VFw5vtJ-80" style="edgeStyle=orthogonalEdgeStyle;rounded=0;orthogonalLoop=1;jettySize=auto;html=1;exitX=1;exitY=0.75;exitDx=0;exitDy=0;" edge="1" parent="7Zri0SN4NDki_VFw5vtJ-1" source="7Zri0SN4NDki_VFw5vtJ-81">
          <mxGeometry relative="1" as="geometry">
            <mxPoint x="1000" y="961.7142857142856" as="targetPoint" />
          </mxGeometry>
        </mxCell>
        <mxCell id="7Zri0SN4NDki_VFw5vtJ-81" value="&lt;div&gt;hasil&lt;/div&gt;" style="shape=parallelogram;perimeter=parallelogramPerimeter;whiteSpace=wrap;html=1;fixedSize=1;" vertex="1" parent="7Zri0SN4NDki_VFw5vtJ-1">
          <mxGeometry x="850" y="920" width="120" height="60" as="geometry" />
        </mxCell>
        <mxCell id="7Zri0SN4NDki_VFw5vtJ-82" style="edgeStyle=orthogonalEdgeStyle;rounded=0;orthogonalLoop=1;jettySize=auto;html=1;exitX=1;exitY=0.5;exitDx=0;exitDy=0;" edge="1" parent="7Zri0SN4NDki_VFw5vtJ-1" source="7Zri0SN4NDki_VFw5vtJ-83">
          <mxGeometry relative="1" as="geometry">
            <mxPoint x="660" y="1110" as="targetPoint" />
          </mxGeometry>
        </mxCell>
        <mxCell id="7Zri0SN4NDki_VFw5vtJ-83" value="Masukkan jumlah" style="shape=parallelogram;perimeter=parallelogramPerimeter;whiteSpace=wrap;html=1;fixedSize=1;" vertex="1" parent="7Zri0SN4NDki_VFw5vtJ-1">
          <mxGeometry x="460" y="1080" width="120" height="60" as="geometry" />
        </mxCell>
        <mxCell id="7Zri0SN4NDki_VFw5vtJ-84" value="" style="endArrow=classic;html=1;rounded=0;entryX=0;entryY=0;entryDx=0;entryDy=0;" edge="1" parent="7Zri0SN4NDki_VFw5vtJ-1">
          <mxGeometry width="50" height="50" relative="1" as="geometry">
            <mxPoint x="410" y="1091" as="sourcePoint" />
            <mxPoint x="477" y="1090" as="targetPoint" />
          </mxGeometry>
        </mxCell>
        <mxCell id="7Zri0SN4NDki_VFw5vtJ-85" value="" style="edgeStyle=orthogonalEdgeStyle;rounded=0;orthogonalLoop=1;jettySize=auto;html=1;" edge="1" parent="7Zri0SN4NDki_VFw5vtJ-1" source="7Zri0SN4NDki_VFw5vtJ-86" target="7Zri0SN4NDki_VFw5vtJ-89">
          <mxGeometry relative="1" as="geometry" />
        </mxCell>
        <mxCell id="7Zri0SN4NDki_VFw5vtJ-86" value="jumlah / 100" style="rounded=0;whiteSpace=wrap;html=1;" vertex="1" parent="7Zri0SN4NDki_VFw5vtJ-1">
          <mxGeometry x="660" y="1080" width="120" height="60" as="geometry" />
        </mxCell>
        <mxCell id="7Zri0SN4NDki_VFw5vtJ-87" style="edgeStyle=orthogonalEdgeStyle;rounded=0;orthogonalLoop=1;jettySize=auto;html=1;exitX=1;exitY=0.5;exitDx=0;exitDy=0;" edge="1" parent="7Zri0SN4NDki_VFw5vtJ-1" source="7Zri0SN4NDki_VFw5vtJ-89">
          <mxGeometry relative="1" as="geometry">
            <mxPoint x="1100" y="950" as="targetPoint" />
          </mxGeometry>
        </mxCell>
        <mxCell id="7Zri0SN4NDki_VFw5vtJ-88" style="edgeStyle=orthogonalEdgeStyle;rounded=0;orthogonalLoop=1;jettySize=auto;html=1;exitX=1;exitY=0.75;exitDx=0;exitDy=0;" edge="1" parent="7Zri0SN4NDki_VFw5vtJ-1" source="7Zri0SN4NDki_VFw5vtJ-89">
          <mxGeometry relative="1" as="geometry">
            <mxPoint x="980" y="1121.7142857142856" as="targetPoint" />
          </mxGeometry>
        </mxCell>
        <mxCell id="7Zri0SN4NDki_VFw5vtJ-89" value="&lt;div&gt;hasil&lt;/div&gt;" style="shape=parallelogram;perimeter=parallelogramPerimeter;whiteSpace=wrap;html=1;fixedSize=1;" vertex="1" parent="7Zri0SN4NDki_VFw5vtJ-1">
          <mxGeometry x="840" y="1080" width="120" height="60" as="geometry" />
        </mxCell>
        <mxCell id="7Zri0SN4NDki_VFw5vtJ-90" value="selesai" style="strokeWidth=2;html=1;shape=mxgraph.flowchart.terminator;whiteSpace=wrap;" vertex="1" parent="7Zri0SN4NDki_VFw5vtJ-1">
          <mxGeometry x="309.99523809523805" y="1340" width="100" height="60" as="geometry" />
        </mxCell>
        <mxCell id="7Zri0SN4NDki_VFw5vtJ-91" style="edgeStyle=orthogonalEdgeStyle;rounded=0;orthogonalLoop=1;jettySize=auto;html=1;exitX=0.5;exitY=1;exitDx=0;exitDy=0;entryX=0.5;entryY=0;entryDx=0;entryDy=0;entryPerimeter=0;" edge="1" parent="7Zri0SN4NDki_VFw5vtJ-1" source="7Zri0SN4NDki_VFw5vtJ-35" target="7Zri0SN4NDki_VFw5vtJ-90">
          <mxGeometry relative="1" as="geometry" />
        </mxCell>
        <mxCell id="7Zri0SN4NDki_VFw5vtJ-92" value="benar" style="edgeLabel;html=1;align=center;verticalAlign=middle;resizable=0;points=[];" vertex="1" connectable="0" parent="7Zri0SN4NDki_VFw5vtJ-91">
          <mxGeometry x="-0.1048" relative="1" as="geometry">
            <mxPoint as="offset" />
          </mxGeometry>
        </mxCell>
      </root>
    </mxGraphModel>
  </diagram>
  <diagram name=" Konversi Waktu" id="Es_5e89C6Z4iZj3XK2Os">
    <mxGraphModel dx="880" dy="508" grid="1" gridSize="10" guides="1" tooltips="1" connect="1" arrows="1" fold="1" page="1" pageScale="1" pageWidth="2000" pageHeight="2000" math="0" shadow="0">
      <root>
        <mxCell id="xezU1N8EZMRquW6QRKIB-0" />
        <mxCell id="xezU1N8EZMRquW6QRKIB-1" parent="xezU1N8EZMRquW6QRKIB-0" />
        <mxCell id="xezU1N8EZMRquW6QRKIB-2" style="edgeStyle=orthogonalEdgeStyle;rounded=0;orthogonalLoop=1;jettySize=auto;html=1;exitX=0.5;exitY=1;exitDx=0;exitDy=0;entryX=0.5;entryY=0;entryDx=0;entryDy=0;" edge="1" parent="xezU1N8EZMRquW6QRKIB-1" source="xezU1N8EZMRquW6QRKIB-3">
          <mxGeometry relative="1" as="geometry">
            <mxPoint x="360" y="140" as="targetPoint" />
          </mxGeometry>
        </mxCell>
        <mxCell id="xezU1N8EZMRquW6QRKIB-3" value="&amp;nbsp;Konversi Waktu" style="verticalLabelPosition=bottom;verticalAlign=top;html=1;shape=offPageConnector;rounded=0;size=0.5;" vertex="1" parent="xezU1N8EZMRquW6QRKIB-1">
          <mxGeometry x="330" y="20" width="60" height="60" as="geometry" />
        </mxCell>
        <mxCell id="xezU1N8EZMRquW6QRKIB-4" style="edgeStyle=orthogonalEdgeStyle;rounded=0;orthogonalLoop=1;jettySize=auto;html=1;exitX=0.5;exitY=1;exitDx=0;exitDy=0;exitPerimeter=0;entryX=0.5;entryY=0;entryDx=0;entryDy=0;" edge="1" parent="xezU1N8EZMRquW6QRKIB-1" source="xezU1N8EZMRquW6QRKIB-5" target="xezU1N8EZMRquW6QRKIB-7">
          <mxGeometry relative="1" as="geometry" />
        </mxCell>
        <mxCell id="xezU1N8EZMRquW6QRKIB-5" value="mulai" style="strokeWidth=2;html=1;shape=mxgraph.flowchart.terminator;whiteSpace=wrap;" vertex="1" parent="xezU1N8EZMRquW6QRKIB-1">
          <mxGeometry x="310" y="140" width="100" height="60" as="geometry" />
        </mxCell>
        <mxCell id="xezU1N8EZMRquW6QRKIB-6" style="edgeStyle=orthogonalEdgeStyle;rounded=0;orthogonalLoop=1;jettySize=auto;html=1;exitX=0.5;exitY=1;exitDx=0;exitDy=0;entryX=0.5;entryY=0;entryDx=0;entryDy=0;" edge="1" parent="xezU1N8EZMRquW6QRKIB-1" source="xezU1N8EZMRquW6QRKIB-7" target="xezU1N8EZMRquW6QRKIB-13">
          <mxGeometry relative="1" as="geometry" />
        </mxCell>
        <mxCell id="xezU1N8EZMRquW6QRKIB-7" value="Konversi Waktu:&lt;br&gt;1. Jam ke Menit&lt;br&gt;2. Jam ke Detik&lt;br&gt;3. Menit ke Jam&lt;br&gt;4. Menit ke Detik&lt;br&gt;5. Detik ke Jam&lt;br&gt;6. Detik ke Menit&lt;br&gt;7. Kembali" style="shape=parallelogram;perimeter=parallelogramPerimeter;whiteSpace=wrap;html=1;fixedSize=1;" vertex="1" parent="xezU1N8EZMRquW6QRKIB-1">
          <mxGeometry x="250" y="240" width="220" height="120" as="geometry" />
        </mxCell>
        <mxCell id="xezU1N8EZMRquW6QRKIB-8" value="" style="endArrow=classic;html=1;rounded=0;entryX=0;entryY=0;entryDx=0;entryDy=0;" edge="1" parent="xezU1N8EZMRquW6QRKIB-1">
          <mxGeometry width="50" height="50" relative="1" as="geometry">
            <mxPoint x="200" y="260" as="sourcePoint" />
            <mxPoint x="267" y="259" as="targetPoint" />
          </mxGeometry>
        </mxCell>
        <mxCell id="xezU1N8EZMRquW6QRKIB-9" style="edgeStyle=orthogonalEdgeStyle;rounded=0;orthogonalLoop=1;jettySize=auto;html=1;exitX=1;exitY=0.5;exitDx=0;exitDy=0;" edge="1" parent="xezU1N8EZMRquW6QRKIB-1" source="xezU1N8EZMRquW6QRKIB-13" target="xezU1N8EZMRquW6QRKIB-37">
          <mxGeometry relative="1" as="geometry" />
        </mxCell>
        <mxCell id="xezU1N8EZMRquW6QRKIB-10" value="benar" style="edgeLabel;html=1;align=center;verticalAlign=middle;resizable=0;points=[];" vertex="1" connectable="0" parent="xezU1N8EZMRquW6QRKIB-9">
          <mxGeometry x="-0.271" y="1" relative="1" as="geometry">
            <mxPoint as="offset" />
          </mxGeometry>
        </mxCell>
        <mxCell id="xezU1N8EZMRquW6QRKIB-11" style="edgeStyle=orthogonalEdgeStyle;rounded=0;orthogonalLoop=1;jettySize=auto;html=1;exitX=0.5;exitY=1;exitDx=0;exitDy=0;entryX=0.5;entryY=0;entryDx=0;entryDy=0;" edge="1" parent="xezU1N8EZMRquW6QRKIB-1" source="xezU1N8EZMRquW6QRKIB-13" target="xezU1N8EZMRquW6QRKIB-16">
          <mxGeometry relative="1" as="geometry" />
        </mxCell>
        <mxCell id="xezU1N8EZMRquW6QRKIB-12" value="salah" style="edgeLabel;html=1;align=center;verticalAlign=middle;resizable=0;points=[];" vertex="1" connectable="0" parent="xezU1N8EZMRquW6QRKIB-11">
          <mxGeometry x="-0.2648" y="1" relative="1" as="geometry">
            <mxPoint as="offset" />
          </mxGeometry>
        </mxCell>
        <mxCell id="xezU1N8EZMRquW6QRKIB-13" value="pilihan 1" style="rhombus;whiteSpace=wrap;html=1;" vertex="1" parent="xezU1N8EZMRquW6QRKIB-1">
          <mxGeometry x="320" y="390" width="80" height="80" as="geometry" />
        </mxCell>
        <mxCell id="xezU1N8EZMRquW6QRKIB-14" style="edgeStyle=orthogonalEdgeStyle;rounded=0;orthogonalLoop=1;jettySize=auto;html=1;exitX=0.5;exitY=1;exitDx=0;exitDy=0;entryX=0.5;entryY=0;entryDx=0;entryDy=0;" edge="1" parent="xezU1N8EZMRquW6QRKIB-1" source="xezU1N8EZMRquW6QRKIB-16" target="xezU1N8EZMRquW6QRKIB-21">
          <mxGeometry relative="1" as="geometry" />
        </mxCell>
        <mxCell id="xezU1N8EZMRquW6QRKIB-15" value="salah" style="edgeLabel;html=1;align=center;verticalAlign=middle;resizable=0;points=[];" vertex="1" connectable="0" parent="xezU1N8EZMRquW6QRKIB-14">
          <mxGeometry x="-0.4362" y="-4" relative="1" as="geometry">
            <mxPoint as="offset" />
          </mxGeometry>
        </mxCell>
        <mxCell id="xezU1N8EZMRquW6QRKIB-16" value="pilihan 2" style="rhombus;whiteSpace=wrap;html=1;" vertex="1" parent="xezU1N8EZMRquW6QRKIB-1">
          <mxGeometry x="320" y="520" width="80" height="80" as="geometry" />
        </mxCell>
        <mxCell id="xezU1N8EZMRquW6QRKIB-17" style="edgeStyle=orthogonalEdgeStyle;rounded=0;orthogonalLoop=1;jettySize=auto;html=1;exitX=1;exitY=0.5;exitDx=0;exitDy=0;" edge="1" parent="xezU1N8EZMRquW6QRKIB-1" source="xezU1N8EZMRquW6QRKIB-21" target="xezU1N8EZMRquW6QRKIB-55">
          <mxGeometry relative="1" as="geometry" />
        </mxCell>
        <mxCell id="xezU1N8EZMRquW6QRKIB-18" value="benar" style="edgeLabel;html=1;align=center;verticalAlign=middle;resizable=0;points=[];" vertex="1" connectable="0" parent="xezU1N8EZMRquW6QRKIB-17">
          <mxGeometry x="-0.0929" y="1" relative="1" as="geometry">
            <mxPoint as="offset" />
          </mxGeometry>
        </mxCell>
        <mxCell id="xezU1N8EZMRquW6QRKIB-19" style="edgeStyle=orthogonalEdgeStyle;rounded=0;orthogonalLoop=1;jettySize=auto;html=1;exitX=0.5;exitY=1;exitDx=0;exitDy=0;entryX=0.5;entryY=0;entryDx=0;entryDy=0;" edge="1" parent="xezU1N8EZMRquW6QRKIB-1" source="xezU1N8EZMRquW6QRKIB-21" target="xezU1N8EZMRquW6QRKIB-24">
          <mxGeometry relative="1" as="geometry" />
        </mxCell>
        <mxCell id="xezU1N8EZMRquW6QRKIB-20" value="salah" style="edgeLabel;html=1;align=center;verticalAlign=middle;resizable=0;points=[];" vertex="1" connectable="0" parent="xezU1N8EZMRquW6QRKIB-19">
          <mxGeometry x="-0.2267" y="2" relative="1" as="geometry">
            <mxPoint as="offset" />
          </mxGeometry>
        </mxCell>
        <mxCell id="xezU1N8EZMRquW6QRKIB-21" value="pilihan 3" style="rhombus;whiteSpace=wrap;html=1;" vertex="1" parent="xezU1N8EZMRquW6QRKIB-1">
          <mxGeometry x="320" y="650" width="80" height="80" as="geometry" />
        </mxCell>
        <mxCell id="xezU1N8EZMRquW6QRKIB-22" style="edgeStyle=orthogonalEdgeStyle;rounded=0;orthogonalLoop=1;jettySize=auto;html=1;exitX=0.5;exitY=1;exitDx=0;exitDy=0;entryX=0.5;entryY=0;entryDx=0;entryDy=0;" edge="1" parent="xezU1N8EZMRquW6QRKIB-1" source="xezU1N8EZMRquW6QRKIB-24" target="xezU1N8EZMRquW6QRKIB-27">
          <mxGeometry relative="1" as="geometry" />
        </mxCell>
        <mxCell id="xezU1N8EZMRquW6QRKIB-23" value="salah" style="edgeLabel;html=1;align=center;verticalAlign=middle;resizable=0;points=[];" vertex="1" connectable="0" parent="xezU1N8EZMRquW6QRKIB-22">
          <mxGeometry x="-0.3219" y="4" relative="1" as="geometry">
            <mxPoint as="offset" />
          </mxGeometry>
        </mxCell>
        <mxCell id="xezU1N8EZMRquW6QRKIB-24" value="pilihan 4" style="rhombus;whiteSpace=wrap;html=1;" vertex="1" parent="xezU1N8EZMRquW6QRKIB-1">
          <mxGeometry x="320" y="780" width="80" height="80" as="geometry" />
        </mxCell>
        <mxCell id="xezU1N8EZMRquW6QRKIB-25" style="edgeStyle=orthogonalEdgeStyle;rounded=0;orthogonalLoop=1;jettySize=auto;html=1;exitX=0.5;exitY=1;exitDx=0;exitDy=0;entryX=0.5;entryY=0;entryDx=0;entryDy=0;" edge="1" parent="xezU1N8EZMRquW6QRKIB-1" source="xezU1N8EZMRquW6QRKIB-27" target="xezU1N8EZMRquW6QRKIB-32">
          <mxGeometry relative="1" as="geometry" />
        </mxCell>
        <mxCell id="xezU1N8EZMRquW6QRKIB-26" value="salah" style="edgeLabel;html=1;align=center;verticalAlign=middle;resizable=0;points=[];" vertex="1" connectable="0" parent="xezU1N8EZMRquW6QRKIB-25">
          <mxGeometry x="-0.4214" y="2" relative="1" as="geometry">
            <mxPoint as="offset" />
          </mxGeometry>
        </mxCell>
        <mxCell id="xezU1N8EZMRquW6QRKIB-27" value="pilihan 5" style="rhombus;whiteSpace=wrap;html=1;" vertex="1" parent="xezU1N8EZMRquW6QRKIB-1">
          <mxGeometry x="320" y="910" width="80" height="80" as="geometry" />
        </mxCell>
        <mxCell id="xezU1N8EZMRquW6QRKIB-28" style="edgeStyle=orthogonalEdgeStyle;rounded=0;orthogonalLoop=1;jettySize=auto;html=1;exitX=1;exitY=0.5;exitDx=0;exitDy=0;entryX=0;entryY=0.5;entryDx=0;entryDy=0;" edge="1" parent="xezU1N8EZMRquW6QRKIB-1" source="xezU1N8EZMRquW6QRKIB-32" target="xezU1N8EZMRquW6QRKIB-83">
          <mxGeometry relative="1" as="geometry" />
        </mxCell>
        <mxCell id="xezU1N8EZMRquW6QRKIB-29" value="benar" style="edgeLabel;html=1;align=center;verticalAlign=middle;resizable=0;points=[];" vertex="1" connectable="0" parent="xezU1N8EZMRquW6QRKIB-28">
          <mxGeometry x="-0.0993" y="1" relative="1" as="geometry">
            <mxPoint as="offset" />
          </mxGeometry>
        </mxCell>
        <mxCell id="xezU1N8EZMRquW6QRKIB-30" style="edgeStyle=orthogonalEdgeStyle;rounded=0;orthogonalLoop=1;jettySize=auto;html=1;exitX=0.5;exitY=1;exitDx=0;exitDy=0;entryX=0.5;entryY=0;entryDx=0;entryDy=0;" edge="1" parent="xezU1N8EZMRquW6QRKIB-1" source="xezU1N8EZMRquW6QRKIB-32" target="xezU1N8EZMRquW6QRKIB-35">
          <mxGeometry relative="1" as="geometry" />
        </mxCell>
        <mxCell id="xezU1N8EZMRquW6QRKIB-31" value="salah" style="edgeLabel;html=1;align=center;verticalAlign=middle;resizable=0;points=[];" vertex="1" connectable="0" parent="xezU1N8EZMRquW6QRKIB-30">
          <mxGeometry x="-0.3116" relative="1" as="geometry">
            <mxPoint as="offset" />
          </mxGeometry>
        </mxCell>
        <mxCell id="xezU1N8EZMRquW6QRKIB-32" value="pilihan 6" style="rhombus;whiteSpace=wrap;html=1;" vertex="1" parent="xezU1N8EZMRquW6QRKIB-1">
          <mxGeometry x="320" y="1070" width="80" height="80" as="geometry" />
        </mxCell>
        <mxCell id="xezU1N8EZMRquW6QRKIB-33" style="edgeStyle=orthogonalEdgeStyle;rounded=0;orthogonalLoop=1;jettySize=auto;html=1;exitX=1;exitY=0.5;exitDx=0;exitDy=0;" edge="1" parent="xezU1N8EZMRquW6QRKIB-1" source="xezU1N8EZMRquW6QRKIB-35">
          <mxGeometry relative="1" as="geometry">
            <mxPoint x="1100" y="1110" as="targetPoint" />
          </mxGeometry>
        </mxCell>
        <mxCell id="xezU1N8EZMRquW6QRKIB-34" value="salah" style="edgeLabel;html=1;align=center;verticalAlign=middle;resizable=0;points=[];" vertex="1" connectable="0" parent="xezU1N8EZMRquW6QRKIB-33">
          <mxGeometry x="-0.8878" y="3" relative="1" as="geometry">
            <mxPoint as="offset" />
          </mxGeometry>
        </mxCell>
        <mxCell id="xezU1N8EZMRquW6QRKIB-35" value="pilihan 7" style="rhombus;whiteSpace=wrap;html=1;" vertex="1" parent="xezU1N8EZMRquW6QRKIB-1">
          <mxGeometry x="320" y="1220" width="80" height="80" as="geometry" />
        </mxCell>
        <mxCell id="xezU1N8EZMRquW6QRKIB-36" style="edgeStyle=orthogonalEdgeStyle;rounded=0;orthogonalLoop=1;jettySize=auto;html=1;exitX=1;exitY=0.5;exitDx=0;exitDy=0;" edge="1" parent="xezU1N8EZMRquW6QRKIB-1" source="xezU1N8EZMRquW6QRKIB-37">
          <mxGeometry relative="1" as="geometry">
            <mxPoint x="700" y="430" as="targetPoint" />
          </mxGeometry>
        </mxCell>
        <mxCell id="xezU1N8EZMRquW6QRKIB-37" value="Masukkan jumlah" style="shape=parallelogram;perimeter=parallelogramPerimeter;whiteSpace=wrap;html=1;fixedSize=1;" vertex="1" parent="xezU1N8EZMRquW6QRKIB-1">
          <mxGeometry x="500" y="400" width="120" height="60" as="geometry" />
        </mxCell>
        <mxCell id="xezU1N8EZMRquW6QRKIB-38" value="" style="endArrow=classic;html=1;rounded=0;entryX=0;entryY=0;entryDx=0;entryDy=0;" edge="1" parent="xezU1N8EZMRquW6QRKIB-1">
          <mxGeometry width="50" height="50" relative="1" as="geometry">
            <mxPoint x="450" y="411" as="sourcePoint" />
            <mxPoint x="517" y="410" as="targetPoint" />
          </mxGeometry>
        </mxCell>
        <mxCell id="xezU1N8EZMRquW6QRKIB-39" value="" style="edgeStyle=orthogonalEdgeStyle;rounded=0;orthogonalLoop=1;jettySize=auto;html=1;" edge="1" parent="xezU1N8EZMRquW6QRKIB-1" source="xezU1N8EZMRquW6QRKIB-40" target="xezU1N8EZMRquW6QRKIB-42">
          <mxGeometry relative="1" as="geometry" />
        </mxCell>
        <mxCell id="xezU1N8EZMRquW6QRKIB-40" value="jumlah * 60" style="rounded=0;whiteSpace=wrap;html=1;" vertex="1" parent="xezU1N8EZMRquW6QRKIB-1">
          <mxGeometry x="700" y="400" width="120" height="60" as="geometry" />
        </mxCell>
        <mxCell id="xezU1N8EZMRquW6QRKIB-41" style="edgeStyle=orthogonalEdgeStyle;rounded=0;orthogonalLoop=1;jettySize=auto;html=1;exitX=1;exitY=0.75;exitDx=0;exitDy=0;" edge="1" parent="xezU1N8EZMRquW6QRKIB-1" source="xezU1N8EZMRquW6QRKIB-42">
          <mxGeometry relative="1" as="geometry">
            <mxPoint x="1030" y="441.71428571428567" as="targetPoint" />
          </mxGeometry>
        </mxCell>
        <mxCell id="xezU1N8EZMRquW6QRKIB-42" value="&lt;div&gt;hasil&lt;/div&gt;" style="shape=parallelogram;perimeter=parallelogramPerimeter;whiteSpace=wrap;html=1;fixedSize=1;" vertex="1" parent="xezU1N8EZMRquW6QRKIB-1">
          <mxGeometry x="880" y="400" width="120" height="60" as="geometry" />
        </mxCell>
        <mxCell id="xezU1N8EZMRquW6QRKIB-43" style="edgeStyle=orthogonalEdgeStyle;rounded=0;orthogonalLoop=1;jettySize=auto;html=1;exitX=1;exitY=0.5;exitDx=0;exitDy=0;entryX=0.998;entryY=0.165;entryDx=0;entryDy=0;entryPerimeter=0;" edge="1" parent="xezU1N8EZMRquW6QRKIB-1" source="xezU1N8EZMRquW6QRKIB-42" target="xezU1N8EZMRquW6QRKIB-7">
          <mxGeometry relative="1" as="geometry">
            <Array as="points">
              <mxPoint x="1100" y="430" />
              <mxPoint x="1100" y="260" />
            </Array>
          </mxGeometry>
        </mxCell>
        <mxCell id="xezU1N8EZMRquW6QRKIB-44" style="edgeStyle=orthogonalEdgeStyle;rounded=0;orthogonalLoop=1;jettySize=auto;html=1;exitX=1;exitY=0.5;exitDx=0;exitDy=0;" edge="1" parent="xezU1N8EZMRquW6QRKIB-1" target="xezU1N8EZMRquW6QRKIB-47">
          <mxGeometry relative="1" as="geometry">
            <mxPoint x="400" y="560" as="sourcePoint" />
          </mxGeometry>
        </mxCell>
        <mxCell id="xezU1N8EZMRquW6QRKIB-45" value="benar" style="edgeLabel;html=1;align=center;verticalAlign=middle;resizable=0;points=[];" vertex="1" connectable="0" parent="xezU1N8EZMRquW6QRKIB-44">
          <mxGeometry x="-0.2396" relative="1" as="geometry">
            <mxPoint as="offset" />
          </mxGeometry>
        </mxCell>
        <mxCell id="xezU1N8EZMRquW6QRKIB-46" style="edgeStyle=orthogonalEdgeStyle;rounded=0;orthogonalLoop=1;jettySize=auto;html=1;exitX=1;exitY=0.5;exitDx=0;exitDy=0;" edge="1" parent="xezU1N8EZMRquW6QRKIB-1" source="xezU1N8EZMRquW6QRKIB-47">
          <mxGeometry relative="1" as="geometry">
            <mxPoint x="700" y="560" as="targetPoint" />
          </mxGeometry>
        </mxCell>
        <mxCell id="xezU1N8EZMRquW6QRKIB-47" value="Masukkan jumlah" style="shape=parallelogram;perimeter=parallelogramPerimeter;whiteSpace=wrap;html=1;fixedSize=1;" vertex="1" parent="xezU1N8EZMRquW6QRKIB-1">
          <mxGeometry x="500" y="530" width="120" height="60" as="geometry" />
        </mxCell>
        <mxCell id="xezU1N8EZMRquW6QRKIB-48" value="" style="endArrow=classic;html=1;rounded=0;entryX=0;entryY=0;entryDx=0;entryDy=0;" edge="1" parent="xezU1N8EZMRquW6QRKIB-1">
          <mxGeometry width="50" height="50" relative="1" as="geometry">
            <mxPoint x="450" y="541" as="sourcePoint" />
            <mxPoint x="517" y="540" as="targetPoint" />
          </mxGeometry>
        </mxCell>
        <mxCell id="xezU1N8EZMRquW6QRKIB-49" value="" style="edgeStyle=orthogonalEdgeStyle;rounded=0;orthogonalLoop=1;jettySize=auto;html=1;" edge="1" parent="xezU1N8EZMRquW6QRKIB-1" source="xezU1N8EZMRquW6QRKIB-50" target="xezU1N8EZMRquW6QRKIB-53">
          <mxGeometry relative="1" as="geometry" />
        </mxCell>
        <mxCell id="xezU1N8EZMRquW6QRKIB-50" value="jumlah * 3600" style="rounded=0;whiteSpace=wrap;html=1;" vertex="1" parent="xezU1N8EZMRquW6QRKIB-1">
          <mxGeometry x="700" y="530" width="120" height="60" as="geometry" />
        </mxCell>
        <mxCell id="xezU1N8EZMRquW6QRKIB-51" style="edgeStyle=orthogonalEdgeStyle;rounded=0;orthogonalLoop=1;jettySize=auto;html=1;exitX=1;exitY=0.75;exitDx=0;exitDy=0;" edge="1" parent="xezU1N8EZMRquW6QRKIB-1" source="xezU1N8EZMRquW6QRKIB-53">
          <mxGeometry relative="1" as="geometry">
            <mxPoint x="1030" y="571.7142857142857" as="targetPoint" />
          </mxGeometry>
        </mxCell>
        <mxCell id="xezU1N8EZMRquW6QRKIB-52" style="edgeStyle=orthogonalEdgeStyle;rounded=0;orthogonalLoop=1;jettySize=auto;html=1;exitX=1;exitY=0.5;exitDx=0;exitDy=0;" edge="1" parent="xezU1N8EZMRquW6QRKIB-1" source="xezU1N8EZMRquW6QRKIB-53">
          <mxGeometry relative="1" as="geometry">
            <mxPoint x="1100" y="430" as="targetPoint" />
          </mxGeometry>
        </mxCell>
        <mxCell id="xezU1N8EZMRquW6QRKIB-53" value="&lt;div&gt;hasil&lt;/div&gt;" style="shape=parallelogram;perimeter=parallelogramPerimeter;whiteSpace=wrap;html=1;fixedSize=1;" vertex="1" parent="xezU1N8EZMRquW6QRKIB-1">
          <mxGeometry x="880" y="530" width="120" height="60" as="geometry" />
        </mxCell>
        <mxCell id="xezU1N8EZMRquW6QRKIB-54" style="edgeStyle=orthogonalEdgeStyle;rounded=0;orthogonalLoop=1;jettySize=auto;html=1;exitX=1;exitY=0.5;exitDx=0;exitDy=0;" edge="1" parent="xezU1N8EZMRquW6QRKIB-1" source="xezU1N8EZMRquW6QRKIB-55">
          <mxGeometry relative="1" as="geometry">
            <mxPoint x="670" y="690" as="targetPoint" />
          </mxGeometry>
        </mxCell>
        <mxCell id="xezU1N8EZMRquW6QRKIB-55" value="Masukkan jumlah" style="shape=parallelogram;perimeter=parallelogramPerimeter;whiteSpace=wrap;html=1;fixedSize=1;" vertex="1" parent="xezU1N8EZMRquW6QRKIB-1">
          <mxGeometry x="470" y="660" width="120" height="60" as="geometry" />
        </mxCell>
        <mxCell id="xezU1N8EZMRquW6QRKIB-56" value="" style="endArrow=classic;html=1;rounded=0;entryX=0;entryY=0;entryDx=0;entryDy=0;" edge="1" parent="xezU1N8EZMRquW6QRKIB-1">
          <mxGeometry width="50" height="50" relative="1" as="geometry">
            <mxPoint x="420" y="671" as="sourcePoint" />
            <mxPoint x="487" y="670" as="targetPoint" />
          </mxGeometry>
        </mxCell>
        <mxCell id="xezU1N8EZMRquW6QRKIB-57" value="" style="edgeStyle=orthogonalEdgeStyle;rounded=0;orthogonalLoop=1;jettySize=auto;html=1;" edge="1" parent="xezU1N8EZMRquW6QRKIB-1" source="xezU1N8EZMRquW6QRKIB-58" target="xezU1N8EZMRquW6QRKIB-61">
          <mxGeometry relative="1" as="geometry" />
        </mxCell>
        <mxCell id="xezU1N8EZMRquW6QRKIB-58" value="jumlah / 60" style="rounded=0;whiteSpace=wrap;html=1;" vertex="1" parent="xezU1N8EZMRquW6QRKIB-1">
          <mxGeometry x="670" y="660" width="120" height="60" as="geometry" />
        </mxCell>
        <mxCell id="xezU1N8EZMRquW6QRKIB-59" style="edgeStyle=orthogonalEdgeStyle;rounded=0;orthogonalLoop=1;jettySize=auto;html=1;exitX=1;exitY=0.5;exitDx=0;exitDy=0;" edge="1" parent="xezU1N8EZMRquW6QRKIB-1" source="xezU1N8EZMRquW6QRKIB-61">
          <mxGeometry relative="1" as="geometry">
            <mxPoint x="1100" y="560" as="targetPoint" />
          </mxGeometry>
        </mxCell>
        <mxCell id="xezU1N8EZMRquW6QRKIB-60" style="edgeStyle=orthogonalEdgeStyle;rounded=0;orthogonalLoop=1;jettySize=auto;html=1;exitX=1;exitY=0.75;exitDx=0;exitDy=0;" edge="1" parent="xezU1N8EZMRquW6QRKIB-1" source="xezU1N8EZMRquW6QRKIB-61">
          <mxGeometry relative="1" as="geometry">
            <mxPoint x="1000" y="701.7142857142856" as="targetPoint" />
          </mxGeometry>
        </mxCell>
        <mxCell id="xezU1N8EZMRquW6QRKIB-61" value="&lt;div&gt;hasil&lt;/div&gt;" style="shape=parallelogram;perimeter=parallelogramPerimeter;whiteSpace=wrap;html=1;fixedSize=1;" vertex="1" parent="xezU1N8EZMRquW6QRKIB-1">
          <mxGeometry x="850" y="660" width="120" height="60" as="geometry" />
        </mxCell>
        <mxCell id="xezU1N8EZMRquW6QRKIB-62" style="edgeStyle=orthogonalEdgeStyle;rounded=0;orthogonalLoop=1;jettySize=auto;html=1;exitX=1;exitY=0.5;exitDx=0;exitDy=0;" edge="1" parent="xezU1N8EZMRquW6QRKIB-1" target="xezU1N8EZMRquW6QRKIB-65">
          <mxGeometry relative="1" as="geometry">
            <mxPoint x="400" y="820" as="sourcePoint" />
          </mxGeometry>
        </mxCell>
        <mxCell id="xezU1N8EZMRquW6QRKIB-63" value="benar" style="edgeLabel;html=1;align=center;verticalAlign=middle;resizable=0;points=[];" vertex="1" connectable="0" parent="xezU1N8EZMRquW6QRKIB-62">
          <mxGeometry x="-0.2158" y="-2" relative="1" as="geometry">
            <mxPoint as="offset" />
          </mxGeometry>
        </mxCell>
        <mxCell id="xezU1N8EZMRquW6QRKIB-64" style="edgeStyle=orthogonalEdgeStyle;rounded=0;orthogonalLoop=1;jettySize=auto;html=1;exitX=1;exitY=0.5;exitDx=0;exitDy=0;" edge="1" parent="xezU1N8EZMRquW6QRKIB-1" source="xezU1N8EZMRquW6QRKIB-65">
          <mxGeometry relative="1" as="geometry">
            <mxPoint x="670" y="820" as="targetPoint" />
          </mxGeometry>
        </mxCell>
        <mxCell id="xezU1N8EZMRquW6QRKIB-65" value="Masukkan jumlah" style="shape=parallelogram;perimeter=parallelogramPerimeter;whiteSpace=wrap;html=1;fixedSize=1;" vertex="1" parent="xezU1N8EZMRquW6QRKIB-1">
          <mxGeometry x="470" y="790" width="120" height="60" as="geometry" />
        </mxCell>
        <mxCell id="xezU1N8EZMRquW6QRKIB-66" value="" style="endArrow=classic;html=1;rounded=0;entryX=0;entryY=0;entryDx=0;entryDy=0;" edge="1" parent="xezU1N8EZMRquW6QRKIB-1">
          <mxGeometry width="50" height="50" relative="1" as="geometry">
            <mxPoint x="420" y="801" as="sourcePoint" />
            <mxPoint x="487" y="800" as="targetPoint" />
          </mxGeometry>
        </mxCell>
        <mxCell id="xezU1N8EZMRquW6QRKIB-67" value="" style="edgeStyle=orthogonalEdgeStyle;rounded=0;orthogonalLoop=1;jettySize=auto;html=1;" edge="1" parent="xezU1N8EZMRquW6QRKIB-1" source="xezU1N8EZMRquW6QRKIB-68" target="xezU1N8EZMRquW6QRKIB-71">
          <mxGeometry relative="1" as="geometry" />
        </mxCell>
        <mxCell id="xezU1N8EZMRquW6QRKIB-68" value="jumlah * 60" style="rounded=0;whiteSpace=wrap;html=1;" vertex="1" parent="xezU1N8EZMRquW6QRKIB-1">
          <mxGeometry x="670" y="790" width="120" height="60" as="geometry" />
        </mxCell>
        <mxCell id="xezU1N8EZMRquW6QRKIB-69" style="edgeStyle=orthogonalEdgeStyle;rounded=0;orthogonalLoop=1;jettySize=auto;html=1;exitX=1;exitY=0.5;exitDx=0;exitDy=0;" edge="1" parent="xezU1N8EZMRquW6QRKIB-1" source="xezU1N8EZMRquW6QRKIB-71">
          <mxGeometry relative="1" as="geometry">
            <mxPoint x="1100" y="690" as="targetPoint" />
          </mxGeometry>
        </mxCell>
        <mxCell id="xezU1N8EZMRquW6QRKIB-70" style="edgeStyle=orthogonalEdgeStyle;rounded=0;orthogonalLoop=1;jettySize=auto;html=1;exitX=1;exitY=0.75;exitDx=0;exitDy=0;" edge="1" parent="xezU1N8EZMRquW6QRKIB-1" source="xezU1N8EZMRquW6QRKIB-71">
          <mxGeometry relative="1" as="geometry">
            <mxPoint x="990" y="831.2380952380952" as="targetPoint" />
          </mxGeometry>
        </mxCell>
        <mxCell id="xezU1N8EZMRquW6QRKIB-71" value="&lt;div&gt;hasil&lt;/div&gt;" style="shape=parallelogram;perimeter=parallelogramPerimeter;whiteSpace=wrap;html=1;fixedSize=1;" vertex="1" parent="xezU1N8EZMRquW6QRKIB-1">
          <mxGeometry x="850" y="790" width="120" height="60" as="geometry" />
        </mxCell>
        <mxCell id="xezU1N8EZMRquW6QRKIB-72" style="edgeStyle=orthogonalEdgeStyle;rounded=0;orthogonalLoop=1;jettySize=auto;html=1;exitX=1;exitY=0.5;exitDx=0;exitDy=0;" edge="1" parent="xezU1N8EZMRquW6QRKIB-1" target="xezU1N8EZMRquW6QRKIB-75">
          <mxGeometry relative="1" as="geometry">
            <mxPoint x="400" y="950" as="sourcePoint" />
          </mxGeometry>
        </mxCell>
        <mxCell id="xezU1N8EZMRquW6QRKIB-73" value="benar" style="edgeLabel;html=1;align=center;verticalAlign=middle;resizable=0;points=[];" vertex="1" connectable="0" parent="xezU1N8EZMRquW6QRKIB-72">
          <mxGeometry x="-0.1213" y="-2" relative="1" as="geometry">
            <mxPoint x="-2" y="1" as="offset" />
          </mxGeometry>
        </mxCell>
        <mxCell id="xezU1N8EZMRquW6QRKIB-74" style="edgeStyle=orthogonalEdgeStyle;rounded=0;orthogonalLoop=1;jettySize=auto;html=1;exitX=1;exitY=0.5;exitDx=0;exitDy=0;" edge="1" parent="xezU1N8EZMRquW6QRKIB-1" source="xezU1N8EZMRquW6QRKIB-75">
          <mxGeometry relative="1" as="geometry">
            <mxPoint x="670" y="950" as="targetPoint" />
          </mxGeometry>
        </mxCell>
        <mxCell id="xezU1N8EZMRquW6QRKIB-75" value="Masukkan jumlah" style="shape=parallelogram;perimeter=parallelogramPerimeter;whiteSpace=wrap;html=1;fixedSize=1;" vertex="1" parent="xezU1N8EZMRquW6QRKIB-1">
          <mxGeometry x="470" y="920" width="120" height="60" as="geometry" />
        </mxCell>
        <mxCell id="xezU1N8EZMRquW6QRKIB-76" value="" style="endArrow=classic;html=1;rounded=0;entryX=0;entryY=0;entryDx=0;entryDy=0;" edge="1" parent="xezU1N8EZMRquW6QRKIB-1">
          <mxGeometry width="50" height="50" relative="1" as="geometry">
            <mxPoint x="420" y="931" as="sourcePoint" />
            <mxPoint x="487" y="930" as="targetPoint" />
          </mxGeometry>
        </mxCell>
        <mxCell id="xezU1N8EZMRquW6QRKIB-77" value="" style="edgeStyle=orthogonalEdgeStyle;rounded=0;orthogonalLoop=1;jettySize=auto;html=1;" edge="1" parent="xezU1N8EZMRquW6QRKIB-1" source="xezU1N8EZMRquW6QRKIB-78" target="xezU1N8EZMRquW6QRKIB-81">
          <mxGeometry relative="1" as="geometry" />
        </mxCell>
        <mxCell id="xezU1N8EZMRquW6QRKIB-78" value="jumlah / 3600" style="rounded=0;whiteSpace=wrap;html=1;" vertex="1" parent="xezU1N8EZMRquW6QRKIB-1">
          <mxGeometry x="670" y="920" width="120" height="60" as="geometry" />
        </mxCell>
        <mxCell id="xezU1N8EZMRquW6QRKIB-79" style="edgeStyle=orthogonalEdgeStyle;rounded=0;orthogonalLoop=1;jettySize=auto;html=1;exitX=1;exitY=0.5;exitDx=0;exitDy=0;" edge="1" parent="xezU1N8EZMRquW6QRKIB-1" source="xezU1N8EZMRquW6QRKIB-81">
          <mxGeometry relative="1" as="geometry">
            <mxPoint x="1100" y="820" as="targetPoint" />
          </mxGeometry>
        </mxCell>
        <mxCell id="xezU1N8EZMRquW6QRKIB-80" style="edgeStyle=orthogonalEdgeStyle;rounded=0;orthogonalLoop=1;jettySize=auto;html=1;exitX=1;exitY=0.75;exitDx=0;exitDy=0;" edge="1" parent="xezU1N8EZMRquW6QRKIB-1" source="xezU1N8EZMRquW6QRKIB-81">
          <mxGeometry relative="1" as="geometry">
            <mxPoint x="1000" y="961.7142857142856" as="targetPoint" />
          </mxGeometry>
        </mxCell>
        <mxCell id="xezU1N8EZMRquW6QRKIB-81" value="&lt;div&gt;hasil&lt;/div&gt;" style="shape=parallelogram;perimeter=parallelogramPerimeter;whiteSpace=wrap;html=1;fixedSize=1;" vertex="1" parent="xezU1N8EZMRquW6QRKIB-1">
          <mxGeometry x="850" y="920" width="120" height="60" as="geometry" />
        </mxCell>
        <mxCell id="xezU1N8EZMRquW6QRKIB-82" style="edgeStyle=orthogonalEdgeStyle;rounded=0;orthogonalLoop=1;jettySize=auto;html=1;exitX=1;exitY=0.5;exitDx=0;exitDy=0;" edge="1" parent="xezU1N8EZMRquW6QRKIB-1" source="xezU1N8EZMRquW6QRKIB-83">
          <mxGeometry relative="1" as="geometry">
            <mxPoint x="660" y="1110" as="targetPoint" />
          </mxGeometry>
        </mxCell>
        <mxCell id="xezU1N8EZMRquW6QRKIB-83" value="Masukkan jumlah" style="shape=parallelogram;perimeter=parallelogramPerimeter;whiteSpace=wrap;html=1;fixedSize=1;" vertex="1" parent="xezU1N8EZMRquW6QRKIB-1">
          <mxGeometry x="460" y="1080" width="120" height="60" as="geometry" />
        </mxCell>
        <mxCell id="xezU1N8EZMRquW6QRKIB-84" value="" style="endArrow=classic;html=1;rounded=0;entryX=0;entryY=0;entryDx=0;entryDy=0;" edge="1" parent="xezU1N8EZMRquW6QRKIB-1">
          <mxGeometry width="50" height="50" relative="1" as="geometry">
            <mxPoint x="410" y="1091" as="sourcePoint" />
            <mxPoint x="477" y="1090" as="targetPoint" />
          </mxGeometry>
        </mxCell>
        <mxCell id="xezU1N8EZMRquW6QRKIB-85" value="" style="edgeStyle=orthogonalEdgeStyle;rounded=0;orthogonalLoop=1;jettySize=auto;html=1;" edge="1" parent="xezU1N8EZMRquW6QRKIB-1" source="xezU1N8EZMRquW6QRKIB-86" target="xezU1N8EZMRquW6QRKIB-89">
          <mxGeometry relative="1" as="geometry" />
        </mxCell>
        <mxCell id="xezU1N8EZMRquW6QRKIB-86" value="jumlah / 60" style="rounded=0;whiteSpace=wrap;html=1;" vertex="1" parent="xezU1N8EZMRquW6QRKIB-1">
          <mxGeometry x="660" y="1080" width="120" height="60" as="geometry" />
        </mxCell>
        <mxCell id="xezU1N8EZMRquW6QRKIB-87" style="edgeStyle=orthogonalEdgeStyle;rounded=0;orthogonalLoop=1;jettySize=auto;html=1;exitX=1;exitY=0.5;exitDx=0;exitDy=0;" edge="1" parent="xezU1N8EZMRquW6QRKIB-1" source="xezU1N8EZMRquW6QRKIB-89">
          <mxGeometry relative="1" as="geometry">
            <mxPoint x="1100" y="950" as="targetPoint" />
          </mxGeometry>
        </mxCell>
        <mxCell id="xezU1N8EZMRquW6QRKIB-88" style="edgeStyle=orthogonalEdgeStyle;rounded=0;orthogonalLoop=1;jettySize=auto;html=1;exitX=1;exitY=0.75;exitDx=0;exitDy=0;" edge="1" parent="xezU1N8EZMRquW6QRKIB-1" source="xezU1N8EZMRquW6QRKIB-89">
          <mxGeometry relative="1" as="geometry">
            <mxPoint x="980" y="1121.7142857142856" as="targetPoint" />
          </mxGeometry>
        </mxCell>
        <mxCell id="xezU1N8EZMRquW6QRKIB-89" value="&lt;div&gt;hasil&lt;/div&gt;" style="shape=parallelogram;perimeter=parallelogramPerimeter;whiteSpace=wrap;html=1;fixedSize=1;" vertex="1" parent="xezU1N8EZMRquW6QRKIB-1">
          <mxGeometry x="840" y="1080" width="120" height="60" as="geometry" />
        </mxCell>
        <mxCell id="xezU1N8EZMRquW6QRKIB-90" value="selesai" style="strokeWidth=2;html=1;shape=mxgraph.flowchart.terminator;whiteSpace=wrap;" vertex="1" parent="xezU1N8EZMRquW6QRKIB-1">
          <mxGeometry x="309.99523809523805" y="1340" width="100" height="60" as="geometry" />
        </mxCell>
        <mxCell id="xezU1N8EZMRquW6QRKIB-91" style="edgeStyle=orthogonalEdgeStyle;rounded=0;orthogonalLoop=1;jettySize=auto;html=1;exitX=0.5;exitY=1;exitDx=0;exitDy=0;entryX=0.5;entryY=0;entryDx=0;entryDy=0;entryPerimeter=0;" edge="1" parent="xezU1N8EZMRquW6QRKIB-1" source="xezU1N8EZMRquW6QRKIB-35" target="xezU1N8EZMRquW6QRKIB-90">
          <mxGeometry relative="1" as="geometry" />
        </mxCell>
        <mxCell id="xezU1N8EZMRquW6QRKIB-92" value="benar" style="edgeLabel;html=1;align=center;verticalAlign=middle;resizable=0;points=[];" vertex="1" connectable="0" parent="xezU1N8EZMRquW6QRKIB-91">
          <mxGeometry x="-0.1048" relative="1" as="geometry">
            <mxPoint as="offset" />
          </mxGeometry>
        </mxCell>
      </root>
    </mxGraphModel>
  </diagram>
</mxfile>
